<?xml version="1.0" encoding="UTF-8"?><svg id="a" xmlns="http://www.w3.org/2000/svg" viewBox="0 0 469.31 270.94"><defs><style>.b,.c,.d,.e{fill:#fff;}.b,.d,.e{font-size:10px;}.b,.f{font-family:Manrope-Bold, Manrope;}.g{letter-spacing:-.02em;}.h{letter-spacing:-.04em;}.i,.e{font-family:Manrope-Medium, Manrope;}.j{letter-spacing:-.03em;}.k{letter-spacing:-.01em;}.l{fill:#ededf7;}.m{fill:#ffb9ab;}.n{fill:#ffb685;}.o{fill:#fca;}.p{fill:#ff9682;}.q{fill:#91919d;}.r{fill:#bdbdc4;}.s{fill:#d4765b;}.t{fill:#e08c74;}.u{fill:#c8c8d4;}.v{fill:#21252b;}.w{fill:#363a3f;}.x{fill:#83afff;}.y{letter-spacing:-.03em;}.a`{letter-spacing:-.01em;}.aa{letter-spacing:-.05em;}.ab{letter-spacing:-.02em;}.ac{letter-spacing:0em;}.ad{fill:none;stroke:#fff;}.ae{letter-spacing:-.07em;}.af{letter-spacing:0em;}.ag{letter-spacing:-.07em;}</style></defs><g><path class="p" d="M42.19,.5H107.14c1.6,0,2.89,1.3,2.89,2.89V88.9c0,1.6-1.3,2.89-2.89,2.89H42.19c-1.6,0-2.89-1.3-2.89-2.89V3.39c0-1.6,1.3-2.89,2.89-2.89Z"/><path class="c" d="M107.14,1c1.32,0,2.39,1.07,2.39,2.39V88.9c0,1.32-1.07,2.39-2.39,2.39H42.19c-1.32,0-2.39-1.07-2.39-2.39V3.39c0-1.32,1.07-2.39,2.39-2.39H107.14M107.14,0H42.19C40.32,0,38.8,1.52,38.8,3.39V88.9c0,1.87,1.52,3.39,3.39,3.39H107.14c1.87,0,3.39-1.52,3.39-3.39V3.39C110.53,1.52,109.01,0,107.14,0h0Z"/></g><g><path class="x" d="M360.83,74.05h64.95c1.6,0,2.89,1.3,2.89,2.89v85.51c0,1.6-1.3,2.89-2.89,2.89h-64.95c-1.6,0-2.89-1.3-2.89-2.89V76.94c0-1.6,1.3-2.89,2.89-2.89Z"/><path class="c" d="M425.78,74.55c1.32,0,2.39,1.07,2.39,2.39v85.51c0,1.32-1.07,2.39-2.39,2.39h-64.95c-1.32,0-2.39-1.07-2.39-2.39V76.94c0-1.32,1.07-2.39,2.39-2.39h64.95m0-1h-64.95c-1.87,0-3.39,1.52-3.39,3.39v85.51c0,1.87,1.52,3.39,3.39,3.39h64.95c1.87,0,3.39-1.52,3.39-3.39V76.94c0-1.87-1.52-3.39-3.39-3.39h0Z"/></g><g><path class="p" d="M360.81,180.04h64.98c1.59,0,2.88,1.29,2.88,2.88v84.67c0,1.59-1.29,2.88-2.88,2.88h-64.98c-1.59,0-2.88-1.29-2.88-2.88v-84.67c0-1.59,1.29-2.88,2.88-2.88Z"/><path class="c" d="M425.79,180.54c1.31,0,2.38,1.07,2.38,2.38v84.67c0,1.31-1.07,2.38-2.38,2.38h-64.98c-1.31,0-2.38-1.07-2.38-2.38v-84.67c0-1.31,1.07-2.38,2.38-2.38h64.98m0-1h-64.98c-1.87,0-3.38,1.51-3.38,3.38v84.67c0,1.87,1.51,3.38,3.38,3.38h64.98c1.87,0,3.38-1.51,3.38-3.38v-84.67c0-1.87-1.51-3.38-3.38-3.38h0Z"/></g><path class="o" d="M454.57,87.74h1.6v2.95s-.2,1.46-1.6,1.46-1.6-1.46-1.6-1.46v-2.95h1.6"/><ellipse class="o" cx="454.57" cy="86.11" rx="2.93" ry="2.81"/><ellipse class="n" cx="454.57" cy="86.77" rx="2.6" ry="2.5"/><path class="o" d="M454.57,88.91h0c-1.62,0-2.93-1.27-2.93-2.83v-2.65h5.86v2.65c0,1.56-1.31,2.83-2.93,2.83Z"/><path class="w" d="M451.55,85.64s-1.35,.06-1.39-1.34c-.04-1.41,1.01-1.58,1.01-1.58,0,0-.69-3.18,2.09-3.88,0,0,2.27-.53,2.84,2.29,0,0,1.43-.97,2.42,.33,1.45,1.92-1.03,4.2-1.03,4.2h-5.94Z"/><ellipse class="o" cx="454.57" cy="85.14" rx="2.92" ry="2.16"/><g><path class="o" d="M452.04,86.18c0,.41-.08,.74-.49,.74s-1-.33-1-.74,.33-.74,.75-.74,.75,.33,.75,.74Z"/><path class="o" d="M457.09,86.18c0,.41,.08,.74,.49,.74s1-.33,1-.74-.33-.74-.75-.74-.75,.33-.75,.74Z"/></g><path class="m" d="M462.14,96.54c.01-2.49-1.65-4.66-4.01-5.24l-1.46-.33v-1.2h-4.21v1.2l-1.46,.33c-2.36,.58-4.02,2.75-4.01,5.24,.02,4.39,.13,11.01,.56,14.17h14.02c.43-3.15,.54-9.78,.56-14.17Z"/><path class="o" d="M467.9,119.04l-.2-.97-.46-1.2-.58-.47-.4-.09s-.03,.04-.03,.05c-.04,.06-.12,.12-.12,.12,0,0,0,.43,0,.75,.02,.67-.27,.73-.38,.58-.11-.15-.11-.78-.2-1.19s-.32-1.24-.28-1.88c0,0,0,.38,0-.01s-.57-1.38-.57-1.38l1.01-.62,.56,.92c.77,.73,1.18,1.48,1.52,2.43l.63,.77,.67,.8s.16,.21,.18,.27c-.15,.17-.4,.14-.65-.22h0l.43,.82s.14,.34,.14,.38c-.04,.03-.09,.05-.14,.06,.01,.08,.01,.09,.02,.2-.25,.15-.52,.03-.69-.49l-.07-.14,.02,.19h0l.07,.58h0s.03,.41,0,.4c-.28,.08-.46-.11-.48-.66Z"/><g><polygon class="w" points="457.93 143.98 458.36 150.63 461.02 150.63 461.19 143.73 457.93 143.98"/><path class="w" d="M458.36,150.63v1.55h5.97s.26-.62-.35-.83c-.61-.21-2.49-.53-2.95-1.16,0,0-.28,.49-.88,.34-.6-.15-1.1-.71-1.78,.1Z"/></g><polygon class="q" points="457.01 144.05 462.32 143.68 462.32 142.16 457.01 142.42 457.01 144.05"/><path class="r" d="M465.26,104.88l-3.93,1.94c.94,2.64,3.03,8.61,3.03,8.61l3.41-1.18-2.51-9.36Z"/><path class="o" d="M441.24,119.04l.2-.97,.46-1.2,.58-.47,.4-.09s.03,.04,.03,.05c.04,.06,.12,.12,.12,.12,0,0,0,.43,0,.75-.02,.67,.27,.73,.38,.58,.11-.15,.11-.78,.2-1.19s.32-1.24,.28-1.88c0,0,0,.38,0-.01s.57-1.38,.57-1.38l-1.01-.62-.56,.92c-.77,.73-1.18,1.48-1.52,2.43l-.63,.77-.67,.8s-.16,.21-.18,.27c.15,.17,.4,.14,.65-.22h0l-.43,.82s-.14,.34-.14,.38c.04,.03,.09,.05,.14,.06-.01,.08-.01,.09-.02,.2,.25,.15,.52,.03,.69-.49l.07-.14-.02,.19h0l-.07,.58h0s-.03,.41,0,.4c.28,.08,.46-.11,.48-.66Z"/><g><polygon class="w" points="451.2 143.98 450.78 150.63 448.11 150.63 447.94 143.73 451.2 143.98"/><path class="w" d="M450.78,150.63v1.55h-5.97s-.26-.62,.35-.83c.61-.21,2.49-.53,2.95-1.16,0,0,.28,.49,.88,.34,.6-.15,1.1-.71,1.78,.1Z"/></g><polygon class="q" points="452.12 144.05 446.82 143.68 446.82 142.16 452.12 142.42 452.12 144.05"/><polygon class="w" points="461.54 131.11 461.53 131.11 460.95 109.58 454.57 109.58 454.57 109.58 448.18 109.58 447.6 131.11 447.59 131.11 447.17 142.18 451.61 142.42 452.62 131.45 452.65 131.45 454.09 116.98 454.57 116.98 454.57 116.98 455.04 116.98 456.48 131.45 456.51 131.45 457.53 142.42 461.96 142.18 461.54 131.11"/><path class="r" d="M443.87,104.88l3.93,1.94c-.94,2.64-3.03,8.61-3.03,8.61l-3.41-1.18,2.51-9.36Z"/><g><path class="r" d="M465.26,104.88l-3.3-10.67c-.51-1.35-1.63-2.37-3.01-2.7l-2.29-.54,1.18,28.8c-.07,.85,.62,1.56,1.44,1.5l5.52-.42-1.81-13.71,2.25-2.24Z"/><path class="r" d="M450.17,91.5c-1.38,.34-2.5,1.35-3.01,2.7l-3.3,10.67,2.25,2.24-1.81,13.71,5.52,.42c.83,.06,1.51-.65,1.44-1.5l1.18-28.8-2.29,.54Z"/></g><path class="q" d="M446.85,107.68c.08,0,.14-.06,.14-.13l.3-10.03c0-.07-.06-.14-.14-.14-.08-.02-.14,.06-.14,.13l-.3,10.03c0,.07,.06,.14,.14,.14h0Z"/><text class="e" transform="translate(443.16 164.38)"><tspan x="0" y="0">Ali</tspan><tspan class="ab" x="11.44" y="0">c</tspan><tspan x="16.9" y="0">e</tspan></text><path class="q" d="M462.28,107.68c-.08,0-.14-.06-.14-.13l-.3-10.03c0-.07,.06-.14,.14-.14,.08-.02,.14,.06,.14,.13l.3,10.03c0,.07-.06,.14-.14,.14h0Z"/><polygon class="l" points="10.3 74.23 10.3 77.42 7.37 77.42 7.37 74.1 10.3 74.23"/><path class="w" d="M10.3,77.42v1.68H3.74s-.29-.67,.39-.9c.68-.23,2.74-.57,3.25-1.25,0,0,.31,.53,.97,.37,.66-.16,1.21-.76,1.96,.11Z"/><polygon class="l" points="19.06 74.23 19.06 77.42 21.99 77.42 21.99 74.1 19.06 74.23"/><path class="w" d="M19.06,77.42v1.68h6.57s.29-.67-.39-.9c-.68-.23-2.74-.57-3.25-1.25,0,0-.31,.53-.97,.37-.66-.16-1.21-.76-1.96,.11Z"/><polygon class="q" points="22.21 33.06 14.68 33.06 7.16 33.06 6.14 75.56 10.97 76.36 14.17 41.06 14.68 41.06 15.19 41.06 18.4 76.36 23.23 75.56 22.21 33.06"/><g><path class="t" d="M14.68,7.8h2.27l.44,2.95s-.73,1.46-2.72,1.46-2.72-1.46-2.72-1.46l.44-2.95h2.27"/><circle class="o" cx="14.68" cy="6.17" r="2.81"/><circle class="s" cx="14.68" cy="6.84" r="2.5"/><path class="t" d="M14.68,8.97h0c-1.55,0-2.81-1.27-2.81-2.83V2.73h5.62v3.41c0,1.56-1.26,2.83-2.81,2.83Z"/><path class="w" d="M11.87,5.59V3.3s1.05-.62,1.92,.4c.87,1.02,3.7-.15,3.7-.15v1.96s.62-.19,.87,.35c0,0-.12-.6,.35-1.11,.47-.52,.14-2.26-1.22-2.46,0,0,.56-2.18-1.15-2.27-1.72-.09-2.48,1.29-2.48,1.29,0,0-.88-1.33-1.99-.67s-1.3,1.62-.99,3.16c.28,1.4,.34,1.73,.34,1.73,0,0,.43-.18,.65,.09Z"/><g><path class="t" d="M12.19,6.14c0,.41-.08,.74-.47,.74s-.96-.33-.96-.74,.32-.74,.72-.74,.72,.33,.72,.74Z"/><path class="t" d="M17.04,6.14c0,.41,.08,.74,.47,.74s.96-.33,.96-.74-.32-.74-.72-.74-.72,.33-.72,.74Z"/></g></g><path class="t" d="M1.59,40.61l.24-1.19,.55-1.47,.68-.58,.47-.11s.03,.05,.03,.06c.04,.07,.14,.14,.14,.15,0,0,.01,.53,0,.92-.02,.82,.31,.89,.44,.71,.13-.18,.12-.96,.24-1.46s.37-1.52,.33-2.3c0,0,0,.47,0-.02s.67-1.7,.67-1.7l-1.19-.77-.66,1.13c-.91,.89-1.39,1.81-1.79,2.99l-.74,.94-.78,.98s-.19,.26-.21,.34c.18,.21,.47,.17,.77-.28h0l-.5,1s-.17,.41-.17,.46c.05,.04,.11,.06,.16,.08-.02,.1-.02,.11-.03,.24,.29,.18,.61,.04,.81-.6l.08-.17-.03,.23h0l-.08,.72h0s-.03,.51,0,.49c.33,.1,.55-.14,.57-.81Z"/><path class="t" d="M27.77,40.61l-.24-1.19-.55-1.47-.68-.58-.47-.11s-.03,.05-.03,.06c-.04,.07-.14,.14-.14,.15,0,0-.01,.53,0,.92,.02,.82-.31,.89-.44,.71-.13-.18-.12-.96-.24-1.46s-.37-1.52-.33-2.3c0,0,0,.47,0-.02s-.67-1.7-.67-1.7l1.19-.77,.66,1.13c.91,.89,1.39,1.81,1.79,2.99l.74,.94,.78,.98s.19,.26,.21,.34c-.18,.21-.47,.17-.77-.28h0l.5,1s.17,.41,.17,.46c-.05,.04-.11,.06-.16,.08,.02,.1,.02,.11,.03,.24-.29,.18-.61,.04-.81-.6l-.08-.17,.03,.23h0l.08,.72h0s.03,.51,0,.49c-.33,.1-.55-.14-.57-.81Z"/><polygon class="u" points="16.99 9.65 14.68 11.14 12.38 9.65 11.79 10.5 12.44 33.76 14.68 33.76 16.92 33.76 17.58 10.5 16.99 9.65"/><g><path class="w" d="M12.38,9.65l-6.99,3.02L1.6,35.15c.31-.14,3.67,.8,3.9,1.08,.16-.61,.31-1.19,.46-1.75l.12,4.55h2.9c2.03,0,3.65-1.69,3.58-3.73l-.79-24.8,.59-.85Z"/><path class="w" d="M23.97,12.68l-6.99-3.02,.59,.85-.79,24.8c-.06,2.04,1.56,3.73,3.58,3.73h2.9l.12-4.55c.15,.56,.3,1.14,.46,1.75,.24-.28,3.6-1.21,3.9-1.08l-3.79-22.47Z"/></g><text class="e" transform="translate(5.58 91.3)"><tspan x="0" y="0">Bob</tspan></text><path class="v" d="M6.08,34.19h-.01c-.07,0-.13-.07-.12-.15l1.27-14.79c0-.07,.07-.13,.15-.12,.07,0,.13,.07,.12,.15l-1.27,14.79c0,.07-.06,.12-.13,.12Z"/><path class="v" d="M23.29,34.19h.01c.07,0,.13-.07,.12-.15l-1.27-14.79c0-.07-.07-.13-.15-.12-.07,0-.13,.07-.12,.15l1.27,14.79c0,.07,.06,.12,.13,.12Z"/><g><polygon class="m" points="11.08 10.15 11.6 10.92 13.42 13.27 14.68 11.14 12.35 8.57 11.08 10.15"/><polygon class="m" points="17.02 8.57 14.68 11.14 15.95 13.27 17.76 10.92 18.29 10.15 17.02 8.57"/></g><text class="b" transform="translate(162.04 16.92)"><tspan x="0" y="0">E</tspan><tspan class="g" x="5.85" y="0">x</tspan><tspan x="11.19" y="0">ample </tspan><tspan class="aa" x="42.92" y="0">T</tspan><tspan class="a`" x="48.49" y="0">r</tspan><tspan x="52.35" y="0">ansaction </tspan><tspan x="0" y="12">30 Minima f</tspan><tspan class="ac" x="55.34" y="12">r</tspan><tspan x="59.23" y="12">om Bob </tspan><tspan class="y" x="97.05" y="12">t</tspan><tspan x="101.1" y="12">o Ali</tspan><tspan class="k" x="121.6" y="12">c</tspan><tspan x="127.2" y="12">e </tspan></text><g><path class="c" d="M241.03,111.45c-.72,0-1.34-.16-1.85-.47-.51-.32-.91-.75-1.18-1.32-.28-.56-.41-1.22-.41-1.96s.14-1.4,.41-1.96c.27-.56,.67-1,1.18-1.32,.51-.31,1.13-.47,1.85-.47s1.34,.16,1.85,.47c.51,.32,.91,.75,1.18,1.32,.28,.56,.41,1.22,.41,1.96s-.14,1.4-.41,1.96c-.27,.56-.67,1-1.18,1.32-.52,.31-1.13,.47-1.85,.47Zm0-1.14c.48,0,.89-.1,1.21-.32,.32-.22,.56-.52,.73-.92,.16-.39,.24-.85,.24-1.38s-.08-.98-.24-1.37c-.16-.39-.4-.69-.73-.91-.32-.22-.72-.33-1.21-.33-.48,0-.88,.1-1.21,.32-.32,.22-.56,.52-.72,.91-.16,.39-.24,.85-.24,1.38s.08,.98,.24,1.37c.16,.39,.4,.69,.72,.91,.32,.22,.72,.33,1.21,.33Z"/><path class="c" d="M247.5,111.45c-.4,0-.73-.07-.99-.2-.26-.13-.47-.3-.62-.51-.15-.21-.27-.43-.34-.66-.07-.23-.12-.45-.14-.66-.02-.21-.03-.38-.03-.51v-3.02h1.22v2.6c0,.17,.01,.35,.04,.56,.02,.21,.08,.41,.16,.6,.08,.19,.21,.35,.38,.47s.4,.18,.68,.18c.15,0,.3-.02,.46-.07,.15-.05,.29-.14,.41-.26s.22-.29,.29-.5c.07-.21,.11-.48,.11-.81l.71,.3c0,.46-.09,.88-.27,1.25-.18,.37-.44,.67-.79,.89s-.77,.33-1.28,.33Zm1.77-.16v-1.67h-.15v-3.73h1.21v5.4h-1.06Z"/><path class="c" d="M251.13,106.84v-.95h3.77v.95h-3.77Zm3.77,4.46c-.36,.07-.71,.1-1.05,.09-.34,0-.65-.07-.92-.19-.27-.12-.48-.31-.62-.56-.12-.23-.19-.47-.2-.71s0-.52,0-.83v-4.7h1.2v4.62c0,.22,0,.41,0,.57,0,.16,.04,.3,.1,.4,.12,.2,.31,.31,.58,.33s.56,0,.9-.04v1.01Z"/><path class="c" d="M256.05,113.7v-7.8h1.06v3.79h.15v4.01h-1.21Zm2.6-2.25c-.53,0-.97-.12-1.33-.38s-.62-.59-.8-1.02-.27-.92-.27-1.45,.09-1.03,.27-1.46,.44-.77,.79-1.02c.35-.25,.78-.37,1.29-.37s.95,.12,1.33,.37c.38,.25,.67,.59,.87,1.02,.21,.43,.31,.92,.31,1.46s-.1,1.03-.3,1.46-.49,.77-.86,1.02-.8,.38-1.3,.38Zm-.18-1.08c.31,0,.57-.08,.77-.24,.2-.16,.35-.37,.45-.64,.1-.27,.15-.57,.15-.9s-.05-.62-.15-.89c-.1-.27-.25-.48-.46-.64s-.48-.24-.8-.24c-.31,0-.56,.07-.75,.22-.19,.15-.34,.35-.43,.62-.09,.27-.14,.57-.14,.93s.05,.66,.14,.92c.09,.27,.24,.47,.43,.62s.46,.22,.78,.22Z"/><path class="c" d="M264.25,111.45c-.4,0-.73-.07-.99-.2-.26-.13-.47-.3-.62-.51-.15-.21-.27-.43-.34-.66-.07-.23-.12-.45-.14-.66-.02-.21-.03-.38-.03-.51v-3.02h1.22v2.6c0,.17,.01,.35,.04,.56,.02,.21,.08,.41,.16,.6,.08,.19,.21,.35,.38,.47s.4,.18,.68,.18c.15,0,.3-.02,.46-.07,.15-.05,.29-.14,.41-.26s.22-.29,.29-.5c.07-.21,.11-.48,.11-.81l.71,.3c0,.46-.09,.88-.27,1.25-.18,.37-.44,.67-.79,.89s-.77,.33-1.28,.33Zm1.77-.16v-1.67h-.15v-3.73h1.21v5.4h-1.06Z"/><path class="c" d="M267.88,106.84v-.95h3.77v.95h-3.77Zm3.77,4.46c-.36,.07-.71,.1-1.05,.09-.34,0-.65-.07-.92-.19-.27-.12-.48-.31-.62-.56-.12-.23-.19-.47-.2-.71s0-.52,0-.83v-4.7h1.2v4.62c0,.22,0,.41,0,.57,0,.16,.04,.3,.1,.4,.12,.2,.31,.31,.58,.33s.56,0,.9-.04v1.01Z"/><path class="c" d="M276.06,111.3v-5.88l-1.35,.83v-1.33l1.35-.81h1.23v7.2h-1.23Z"/><path class="c" d="M279.59,110.65v-1.23h1.24v1.23h-1.24Zm.01-2.86v-1.24h1.23v1.24h-1.23Z"/><path class="c" d="M237.48,123.3l2.41-7.2h1.24l2.41,7.2h-.92l-2.25-6.68h.28l-2.24,6.68h-.92Zm1.16-1.68v-.83h3.74v.83h-3.74Z"/><path class="c" d="M244.44,123.3v-5.4h.79v1.45h.1v3.96h-.89Zm3.23,0v-3.42c0-.41-.1-.74-.31-.97-.21-.24-.5-.35-.85-.35s-.63,.12-.85,.36-.33,.56-.33,.96l-.47-.28c0-.35,.08-.66,.25-.94,.17-.28,.39-.49,.68-.65,.29-.16,.61-.24,.98-.24s.68,.08,.95,.23c.27,.15,.48,.37,.62,.66,.15,.29,.22,.62,.22,1.02v3.63h-.89Zm3.23,0v-3.46c0-.4-.1-.72-.32-.95-.22-.23-.49-.34-.84-.34-.2,0-.39,.05-.57,.14-.18,.09-.33,.24-.44,.43-.11,.2-.17,.44-.17,.75l-.47-.19c0-.38,.07-.72,.24-1.01,.17-.29,.39-.51,.68-.67,.29-.16,.61-.24,.97-.24,.56,0,1.01,.17,1.33,.51,.32,.34,.48,.8,.48,1.38v3.65h-.89Z"/><path class="c" d="M255.34,123.45c-.54,0-1-.12-1.39-.37-.39-.24-.69-.58-.9-1.01-.21-.43-.31-.92-.31-1.48s.11-1.06,.32-1.49c.21-.43,.52-.76,.91-1s.85-.36,1.38-.36,1,.12,1.39,.36c.39,.24,.69,.58,.9,1,.21,.43,.31,.92,.31,1.48s-.11,1.06-.32,1.49c-.21,.43-.51,.76-.9,1-.39,.24-.85,.36-1.39,.36Zm0-.85c.56,0,.98-.19,1.25-.56s.41-.86,.41-1.45-.14-1.1-.42-1.46c-.28-.36-.69-.54-1.25-.54-.38,0-.69,.08-.93,.25-.24,.17-.43,.41-.54,.71-.12,.3-.18,.65-.18,1.04,0,.61,.14,1.09,.42,1.46,.28,.37,.69,.55,1.24,.55Z"/><path class="c" d="M261.1,123.44c-.35,0-.64-.05-.89-.17-.25-.11-.45-.26-.62-.44-.16-.18-.29-.39-.38-.61-.09-.22-.16-.45-.2-.68s-.06-.45-.06-.66v-2.99h.9v2.71c0,.25,.02,.5,.07,.74,.05,.24,.12,.45,.24,.64,.11,.19,.26,.34,.45,.45,.19,.11,.42,.17,.71,.17,.22,0,.43-.04,.61-.12,.18-.08,.34-.19,.47-.34,.13-.15,.23-.34,.3-.58,.07-.23,.11-.5,.11-.81l.58,.18c0,.52-.09,.97-.28,1.34-.19,.38-.45,.67-.8,.87-.34,.2-.74,.3-1.21,.3Zm1.8-.14v-1.45h-.1v-3.96h.89v5.4h-.79Z"/><path class="c" d="M265.09,123.3v-5.4h.8v1.45h.1v3.96h-.9Zm3.85,0v-2.71c0-.26-.02-.5-.07-.74-.04-.24-.12-.45-.24-.64-.11-.19-.26-.34-.45-.45-.19-.11-.43-.17-.71-.17-.22,0-.43,.04-.61,.11-.18,.07-.34,.19-.47,.34s-.23,.35-.3,.58c-.07,.23-.11,.5-.11,.82l-.58-.18c0-.52,.09-.97,.28-1.35,.19-.38,.45-.66,.79-.87,.34-.2,.74-.3,1.21-.3,.35,0,.65,.05,.9,.17,.25,.11,.45,.26,.61,.44,.16,.18,.29,.38,.39,.61,.09,.22,.16,.45,.2,.68s.06,.45,.06,.66v2.99h-.9Z"/><path class="c" d="M270.54,118.63v-.74h3.62v.74h-3.62Zm3.62,4.67c-.32,.06-.64,.09-.95,.08s-.59-.07-.83-.19c-.24-.12-.43-.29-.55-.54-.11-.21-.16-.43-.17-.65,0-.22-.01-.47-.01-.74v-4.86h.89v4.82c0,.22,0,.41,0,.57,0,.16,.04,.29,.1,.4,.12,.21,.31,.34,.57,.38,.26,.04,.58,.03,.95-.03v.76Z"/><path class="c" d="M275.65,122.55v-.98h.98v.98h-.98Zm0-2.92v-.98h.98v.98h-.98Z"/><path class="c" d="M280.36,123.44c-.36,0-.69-.07-1-.2s-.57-.32-.79-.56c-.22-.24-.38-.53-.49-.86l.85-.24c.11,.33,.29,.59,.55,.76,.26,.17,.54,.26,.87,.25,.29,0,.55-.07,.76-.2,.21-.13,.38-.3,.5-.53,.12-.22,.18-.48,.18-.77,0-.45-.13-.81-.4-1.09s-.62-.42-1.05-.42c-.12,0-.25,.02-.38,.05s-.25,.08-.37,.14l-.43-.71,2.67-2.42,.11,.3h-3.58v-.85h4.25v.86l-2.27,2.18v-.32c.47-.03,.88,.05,1.24,.24,.36,.19,.63,.46,.83,.82s.3,.76,.3,1.21-.1,.87-.31,1.22-.49,.63-.84,.83c-.35,.2-.75,.3-1.2,.3Z"/><path class="c" d="M286.44,123.45c-.47,0-.88-.11-1.25-.32-.37-.21-.65-.5-.87-.86-.21-.37-.32-.78-.32-1.25v-2.64c0-.47,.11-.88,.32-1.25,.21-.37,.5-.66,.87-.87,.36-.21,.78-.31,1.25-.31s.88,.1,1.25,.31c.37,.21,.66,.5,.87,.87,.21,.37,.31,.78,.31,1.25v2.64c0,.47-.1,.88-.31,1.25-.21,.36-.5,.65-.87,.86-.37,.21-.78,.32-1.25,.32Zm0-.86c.28,0,.54-.07,.77-.21,.23-.14,.41-.32,.55-.55,.14-.23,.21-.49,.21-.77v-2.74c0-.28-.07-.54-.21-.77-.14-.23-.32-.41-.55-.55-.23-.14-.49-.21-.77-.21s-.54,.07-.77,.21-.42,.32-.55,.55c-.14,.23-.2,.49-.2,.77v2.74c0,.28,.07,.54,.2,.77,.14,.23,.32,.42,.55,.55s.49,.21,.77,.21Z"/><path class="c" d="M237.48,135.3l2.41-7.2h1.24l2.41,7.2h-.92l-2.25-6.68h.28l-2.24,6.68h-.92Zm1.16-1.68v-.83h3.74v.83h-3.74Z"/><path class="c" d="M246.56,135.45c-.5,0-.94-.13-1.29-.38-.36-.25-.64-.59-.83-1.02s-.29-.92-.29-1.46,.1-1.03,.29-1.46,.47-.77,.83-1.02c.36-.25,.79-.37,1.29-.37s.94,.12,1.28,.37c.35,.25,.61,.58,.79,1.01,.18,.43,.27,.92,.27,1.46s-.09,1.02-.27,1.45c-.18,.43-.44,.77-.79,1.03s-.77,.38-1.28,.38Zm.11-.82c.36,0,.66-.09,.9-.26s.41-.42,.52-.72c.11-.31,.17-.66,.17-1.05s-.06-.75-.17-1.06c-.11-.3-.28-.54-.51-.71-.23-.17-.52-.26-.88-.26s-.67,.09-.91,.27-.42,.42-.53,.73-.17,.65-.17,1.03,.06,.73,.17,1.04c.12,.31,.29,.55,.53,.73,.23,.18,.53,.27,.88,.27Zm1.58,.67v-3.97h-.1v-3.23h.89v7.2h-.79Z"/><path class="c" d="M252.57,135.45c-.5,0-.94-.13-1.29-.38-.36-.25-.64-.59-.83-1.02s-.29-.92-.29-1.46,.1-1.03,.29-1.46,.47-.77,.83-1.02c.36-.25,.79-.37,1.29-.37s.94,.12,1.28,.37c.35,.25,.61,.58,.79,1.01,.18,.43,.27,.92,.27,1.46s-.09,1.02-.27,1.45c-.18,.43-.44,.77-.79,1.03s-.77,.38-1.28,.38Zm.11-.82c.36,0,.66-.09,.9-.26s.41-.42,.52-.72c.11-.31,.17-.66,.17-1.05s-.06-.75-.17-1.06c-.11-.3-.28-.54-.51-.71-.23-.17-.52-.26-.88-.26s-.67,.09-.91,.27-.42,.42-.53,.73-.17,.65-.17,1.03,.06,.73,.17,1.04c.12,.31,.29,.55,.53,.73,.23,.18,.53,.27,.88,.27Zm1.58,.67v-3.97h-.1v-3.23h.89v7.2h-.79Z"/><path class="c" d="M256.45,135.3v-5.4h.79v1.31l-.13-.17c.06-.17,.15-.32,.25-.46,.1-.14,.22-.26,.34-.35,.14-.11,.3-.2,.47-.26,.18-.06,.36-.1,.54-.11,.18-.01,.36,0,.52,.04v.83c-.19-.05-.39-.06-.62-.04-.22,.02-.43,.11-.62,.25-.17,.12-.31,.27-.4,.45s-.16,.37-.2,.57c-.04,.21-.06,.42-.06,.63v2.71h-.89Z"/><path class="c" d="M262.43,135.45c-.53,0-.99-.12-1.39-.35-.39-.24-.7-.56-.92-.99-.22-.42-.33-.91-.33-1.48s.11-1.1,.32-1.53,.52-.77,.91-1c.39-.24,.84-.35,1.37-.35s1.01,.12,1.39,.38,.67,.61,.86,1.07c.19,.46,.27,1.02,.25,1.66h-.9v-.32c0-.66-.14-1.16-.4-1.49-.26-.33-.65-.49-1.16-.49-.55,0-.97,.18-1.25,.53-.29,.35-.43,.86-.43,1.52s.14,1.13,.43,1.48c.29,.35,.69,.52,1.22,.52,.36,0,.67-.08,.93-.25,.26-.16,.47-.4,.62-.7l.86,.29c-.21,.48-.53,.85-.95,1.11-.42,.26-.89,.39-1.42,.39Zm-2-2.6v-.71h3.99v.71h-3.99Z"/><path class="c" d="M268.03,135.44c-.64,0-1.17-.14-1.58-.42-.41-.28-.66-.68-.76-1.18l.91-.15c.07,.29,.24,.53,.51,.7,.26,.17,.59,.26,.98,.26s.66-.08,.87-.23,.32-.36,.32-.62c0-.15-.04-.28-.11-.37-.07-.09-.21-.18-.43-.27-.22-.08-.55-.18-.99-.3-.48-.13-.85-.26-1.12-.39s-.47-.29-.58-.48c-.12-.18-.17-.4-.17-.65,0-.32,.09-.59,.26-.83,.17-.24,.42-.42,.73-.55,.31-.13,.67-.19,1.09-.19s.78,.06,1.1,.19c.32,.13,.58,.31,.78,.55s.32,.52,.35,.83l-.91,.17c-.04-.29-.18-.52-.42-.69-.24-.17-.54-.25-.91-.26-.35-.01-.63,.05-.85,.18-.22,.14-.33,.32-.33,.56,0,.13,.04,.24,.12,.33,.08,.09,.23,.18,.46,.26,.22,.08,.54,.18,.97,.29,.48,.12,.85,.25,1.13,.39,.27,.14,.47,.31,.59,.5,.12,.19,.18,.43,.18,.71,0,.52-.19,.93-.58,1.23-.38,.3-.91,.45-1.58,.45Z"/><path class="c" d="M273.34,135.44c-.64,0-1.17-.14-1.58-.42-.41-.28-.66-.68-.76-1.18l.91-.15c.07,.29,.24,.53,.51,.7,.26,.17,.59,.26,.98,.26s.66-.08,.87-.23,.32-.36,.32-.62c0-.15-.04-.28-.11-.37-.07-.09-.21-.18-.43-.27-.22-.08-.55-.18-.99-.3-.48-.13-.85-.26-1.12-.39s-.47-.29-.58-.48c-.12-.18-.17-.4-.17-.65,0-.32,.09-.59,.26-.83,.17-.24,.42-.42,.73-.55,.31-.13,.67-.19,1.09-.19s.78,.06,1.1,.19c.32,.13,.58,.31,.78,.55s.32,.52,.35,.83l-.91,.17c-.04-.29-.18-.52-.42-.69-.24-.17-.54-.25-.91-.26-.35-.01-.63,.05-.85,.18-.22,.14-.33,.32-.33,.56,0,.13,.04,.24,.12,.33,.08,.09,.23,.18,.46,.26,.22,.08,.54,.18,.97,.29,.48,.12,.85,.25,1.13,.39,.27,.14,.47,.31,.59,.5,.12,.19,.18,.43,.18,.71,0,.52-.19,.93-.58,1.23-.38,.3-.91,.45-1.58,.45Z"/><path class="c" d="M277,134.55v-.98h.98v.98h-.98Zm0-2.92v-.98h.98v.98h-.98Z"/><path class="c" d="M279.24,135.3l2.41-7.2h1.24l2.41,7.2h-.92l-2.25-6.68h.28l-2.24,6.68h-.92Zm1.16-1.68v-.83h3.74v.83h-3.74Z"/><path class="c" d="M286.3,135.3v-7.35h.89v7.35h-.89Z"/><path class="c" d="M288.79,128.94v-.92h.89v.92h-.89Zm0,6.36v-5.4h.89v5.4h-.89Z"/><path class="c" d="M293.45,135.45c-.55,0-1.01-.12-1.39-.37-.38-.25-.67-.58-.87-1.01-.2-.43-.3-.92-.31-1.47,0-.56,.11-1.06,.32-1.49s.5-.76,.88-1c.38-.24,.85-.36,1.39-.36,.57,0,1.06,.14,1.47,.42,.41,.28,.69,.66,.83,1.15l-.88,.27c-.11-.31-.3-.56-.55-.73-.25-.17-.55-.26-.88-.26-.37,0-.67,.09-.92,.26-.24,.17-.42,.41-.53,.71-.12,.3-.18,.65-.18,1.04,0,.6,.15,1.08,.42,1.45,.27,.37,.68,.55,1.21,.55,.35,0,.65-.08,.88-.24,.23-.16,.41-.4,.53-.7l.9,.23c-.19,.5-.48,.89-.88,1.16s-.88,.4-1.44,.4Z"/><path class="c" d="M298.98,135.45c-.53,0-.99-.12-1.39-.35-.39-.24-.7-.56-.92-.99-.22-.42-.33-.91-.33-1.48s.11-1.1,.32-1.53,.52-.77,.91-1c.39-.24,.84-.35,1.37-.35s1.01,.12,1.39,.38,.67,.61,.86,1.07c.19,.46,.27,1.02,.25,1.66h-.9v-.32c0-.66-.14-1.16-.4-1.49-.26-.33-.65-.49-1.16-.49-.55,0-.97,.18-1.25,.53-.29,.35-.43,.86-.43,1.52s.14,1.13,.43,1.48c.29,.35,.69,.52,1.22,.52,.36,0,.67-.08,.93-.25,.26-.16,.47-.4,.62-.7l.86,.29c-.21,.48-.53,.85-.95,1.11-.42,.26-.89,.39-1.42,.39Zm-2-2.6v-.71h3.99v.71h-3.99Z"/></g><text class="d" transform="translate(237.28 209.31)"><tspan class="f" x="0" y="0">Output 2:</tspan><tspan class="i" x="46.21" y="0"> </tspan><tspan class="i"><tspan class="j" x="0" y="12">(</tspan><tspan x="4.05" y="12">Chang</tspan><tspan class="h" x="34.99" y="12">e</tspan><tspan x="40.5" y="12">) </tspan></tspan><tspan class="i"><tspan x="0" y="24">A</tspan><tspan class="af" x="6.46" y="24">m</tspan><tspan x="15.06" y="24">ount:20 </tspan></tspan><tspan class="i"><tspan x="0" y="36">Add</tspan><tspan class="ac" x="18.47" y="36">r</tspan><tspan x="22.11" y="36">ess:Bob </tspan></tspan></text><g><path class="c" d="M162.84,57.48v-7.2h1.21v7.2h-1.21Z"/><path class="c" d="M165.53,57.48v-5.4h1.07v1.68h.15v3.72h-1.22Zm3.74,0v-2.6c0-.17-.01-.36-.03-.57-.02-.21-.08-.41-.16-.6-.08-.19-.21-.35-.38-.47-.17-.12-.4-.18-.68-.18-.15,0-.3,.03-.46,.08-.15,.05-.29,.14-.41,.26-.12,.12-.22,.29-.29,.5-.07,.21-.11,.48-.11,.81l-.71-.3c0-.46,.09-.88,.27-1.25,.18-.37,.44-.67,.79-.89s.77-.33,1.28-.33c.4,0,.73,.07,.99,.2,.26,.13,.47,.3,.62,.51,.15,.21,.27,.43,.34,.66,.07,.23,.12,.45,.14,.66,.02,.21,.03,.38,.03,.51v3.01h-1.22Z"/><path class="c" d="M171.79,59.88v-7.8h1.06v3.79h.15v4.01h-1.21Zm2.6-2.25c-.53,0-.97-.12-1.33-.38s-.62-.59-.8-1.02-.27-.92-.27-1.45,.09-1.03,.27-1.46,.44-.77,.79-1.02c.35-.25,.78-.37,1.29-.37s.95,.12,1.33,.37c.38,.25,.67,.59,.87,1.02,.21,.43,.31,.92,.31,1.46s-.1,1.03-.3,1.46-.49,.77-.86,1.02-.8,.38-1.3,.38Zm-.18-1.08c.31,0,.57-.08,.77-.24,.2-.16,.35-.37,.45-.64,.1-.27,.15-.57,.15-.9s-.05-.62-.15-.89c-.1-.27-.25-.48-.46-.64s-.48-.24-.8-.24c-.31,0-.56,.07-.75,.22-.19,.15-.34,.35-.43,.62-.09,.27-.14,.57-.14,.93s.05,.66,.14,.92c.09,.27,.24,.47,.43,.62s.46,.22,.78,.22Z"/><path class="c" d="M179.98,57.63c-.4,0-.73-.07-.99-.2-.26-.13-.47-.3-.62-.51-.15-.21-.27-.43-.34-.66-.07-.23-.12-.45-.14-.66-.02-.21-.03-.38-.03-.51v-3.02h1.22v2.6c0,.17,.01,.35,.04,.56,.02,.21,.08,.41,.16,.6,.08,.19,.21,.35,.38,.47s.4,.18,.68,.18c.15,0,.3-.02,.46-.07,.15-.05,.29-.14,.41-.26s.22-.29,.29-.5c.07-.21,.11-.48,.11-.81l.71,.3c0,.46-.09,.88-.27,1.25-.18,.37-.44,.67-.79,.89s-.77,.33-1.28,.33Zm1.77-.16v-1.67h-.15v-3.73h1.21v5.4h-1.06Z"/><path class="c" d="M183.61,53.02v-.95h3.77v.95h-3.77Zm3.77,4.46c-.36,.07-.71,.1-1.05,.09-.34,0-.65-.07-.92-.19-.27-.12-.48-.31-.62-.56-.12-.23-.19-.47-.2-.71s0-.52,0-.83v-4.7h1.2v4.62c0,.22,0,.41,0,.57,0,.16,.04,.3,.1,.4,.12,.2,.31,.31,.58,.33s.56,0,.9-.04v1.01Z"/><path class="c" d="M190.63,57.63c-.67,0-1.21-.15-1.62-.45-.42-.3-.67-.72-.76-1.27l1.23-.19c.06,.27,.2,.48,.42,.63s.49,.23,.82,.23c.29,0,.51-.06,.67-.17,.16-.12,.24-.27,.24-.47,0-.12-.03-.22-.09-.3-.06-.07-.19-.15-.38-.22-.2-.07-.5-.16-.9-.27-.45-.12-.81-.25-1.08-.39-.27-.14-.46-.3-.58-.49-.12-.19-.17-.42-.17-.69,0-.34,.09-.63,.26-.88s.42-.44,.74-.58,.69-.2,1.12-.2,.79,.06,1.12,.19c.33,.13,.59,.32,.79,.56,.2,.24,.32,.52,.37,.84l-1.23,.22c-.03-.23-.13-.41-.31-.54-.18-.13-.42-.21-.71-.22-.28-.02-.51,.03-.68,.13-.17,.1-.26,.25-.26,.43,0,.1,.03,.19,.1,.27s.21,.15,.42,.22c.21,.07,.53,.16,.95,.27,.43,.11,.77,.24,1.03,.38,.26,.14,.45,.31,.56,.51,.11,.2,.17,.43,.17,.71,0,.54-.2,.97-.59,1.28-.4,.31-.94,.47-1.64,.47Z"/><path class="c" d="M194.36,56.83v-1.23h1.24v1.23h-1.24Zm.01-2.86v-1.24h1.23v1.24h-1.23Z"/><path class="c" d="M165.7,69.63c-.72,0-1.33-.16-1.83-.48-.5-.32-.88-.76-1.14-1.32-.26-.56-.39-1.22-.39-1.96s.13-1.39,.39-1.96,.64-1,1.14-1.32,1.11-.47,1.83-.47c.83,0,1.52,.21,2.06,.63,.54,.42,.91,.99,1.11,1.71l-.91,.24c-.15-.54-.41-.96-.79-1.27-.38-.31-.87-.46-1.48-.46-.54,0-.98,.12-1.34,.37-.36,.24-.62,.58-.81,1.02-.18,.43-.27,.94-.27,1.52,0,.57,.08,1.08,.26,1.51,.18,.44,.45,.78,.81,1.02,.36,.25,.81,.37,1.34,.37,.61,0,1.1-.16,1.48-.47,.38-.31,.64-.73,.79-1.27l.91,.24c-.2,.71-.57,1.28-1.11,1.71-.54,.42-1.22,.64-2.06,.64Z"/><path class="c" d="M172.27,69.63c-.54,0-1-.12-1.39-.37-.39-.24-.69-.58-.9-1.01-.21-.43-.31-.92-.31-1.48s.11-1.06,.32-1.49c.21-.43,.52-.76,.91-1s.85-.36,1.38-.36,1,.12,1.39,.36c.39,.24,.69,.58,.9,1,.21,.43,.31,.92,.31,1.48s-.11,1.06-.32,1.49c-.21,.43-.51,.76-.9,1-.39,.24-.85,.36-1.39,.36Zm0-.85c.56,0,.98-.19,1.25-.56s.41-.86,.41-1.45-.14-1.1-.42-1.46c-.28-.36-.69-.54-1.25-.54-.38,0-.69,.08-.93,.25-.24,.17-.43,.41-.54,.71-.12,.3-.18,.65-.18,1.04,0,.61,.14,1.09,.42,1.46,.28,.37,.69,.55,1.24,.55Z"/><path class="c" d="M176.07,63.12v-.92h.89v.92h-.89Zm0,6.36v-5.4h.89v5.4h-.89Z"/><path class="c" d="M178.46,69.48v-5.4h.8v1.45h.1v3.96h-.9Zm3.85,0v-2.71c0-.26-.02-.5-.07-.74-.04-.24-.12-.45-.24-.64-.11-.19-.26-.34-.45-.45-.19-.11-.43-.17-.71-.17-.22,0-.43,.04-.61,.11-.18,.07-.34,.19-.47,.34s-.23,.35-.3,.58c-.07,.23-.11,.5-.11,.82l-.58-.18c0-.52,.09-.97,.28-1.35,.19-.38,.45-.66,.79-.87,.34-.2,.74-.3,1.21-.3,.35,0,.65,.05,.9,.17,.25,.11,.45,.26,.61,.44,.16,.18,.29,.38,.39,.61,.09,.22,.16,.45,.2,.68s.06,.45,.06,.66v2.99h-.9Z"/><path class="c" d="M184.61,69.48v-7.35h.89v7.35h-.89Z"/><path class="c" d="M187,69.48v-7.2h2.22c.07,0,.2,0,.38,0,.18,0,.36,.02,.53,.04,.56,.07,1.02,.28,1.4,.61,.38,.33,.66,.75,.85,1.26,.19,.51,.29,1.07,.29,1.69s-.1,1.17-.29,1.68c-.19,.51-.47,.93-.85,1.26s-.84,.53-1.4,.61c-.17,.02-.34,.03-.53,.04-.19,0-.31,0-.38,0h-2.22Zm.92-.85h1.3c.13,0,.27,0,.42-.01,.16,0,.29-.02,.41-.04,.39-.07,.71-.24,.96-.5,.24-.26,.42-.58,.54-.96,.11-.38,.17-.8,.17-1.24s-.06-.87-.17-1.26c-.11-.38-.29-.7-.54-.95-.24-.25-.56-.42-.95-.49-.12-.02-.25-.04-.42-.04s-.3,0-.42,0h-1.3v5.5Z"/><path class="c" d="M194.21,68.73v-.98h.98v.98h-.98Zm0-2.92v-.98h.98v.98h-.98Z"/><path class="c" d="M198.2,69.48v-6.21l-1.36,.82v-1l1.36-.81h.91v7.2h-.91Z"/><path class="c" d="M200.8,69.47v-.8l3.2-2.88c.27-.24,.45-.47,.54-.68s.14-.44,.14-.66c0-.28-.06-.53-.19-.75-.13-.22-.3-.4-.52-.53-.22-.13-.47-.2-.74-.2s-.54,.07-.76,.2c-.22,.14-.4,.31-.53,.54-.13,.22-.19,.47-.19,.73h-.91c0-.45,.1-.85,.31-1.2s.5-.62,.86-.82c.36-.2,.77-.3,1.23-.3s.85,.1,1.2,.31c.35,.21,.63,.48,.84,.84,.21,.35,.31,.75,.31,1.19,0,.31-.04,.58-.12,.81-.08,.23-.2,.44-.36,.64-.16,.2-.37,.4-.61,.62l-2.66,2.39-.12-.3h3.87v.85h-4.79Z"/><path class="c" d="M208.76,69.62c-.36,0-.69-.07-1-.2s-.57-.32-.79-.56c-.22-.24-.38-.53-.49-.86l.85-.24c.11,.33,.29,.59,.55,.76,.26,.17,.54,.26,.87,.25,.29,0,.55-.07,.76-.2,.21-.13,.38-.3,.5-.53,.12-.22,.18-.48,.18-.77,0-.45-.13-.81-.4-1.09s-.62-.42-1.05-.42c-.12,0-.25,.02-.38,.05s-.25,.08-.37,.14l-.43-.71,2.67-2.42,.11,.3h-3.58v-.85h4.25v.86l-2.27,2.18v-.32c.47-.03,.88,.05,1.24,.24,.36,.19,.63,.46,.83,.82s.3,.76,.3,1.21-.1,.87-.31,1.22-.49,.63-.84,.83c-.35,.2-.75,.3-1.2,.3Z"/><path class="c" d="M215.52,69.48v-1.33h-3.31v-.84l2.38-5.03h1.01l-2.38,5.03h2.3v-2.03h.9v2.03h.75v.84h-.75v1.33h-.9Z"/></g><text class="d" transform="translate(45.44 37.69)"><tspan class="i"><tspan x="0" y="0">U</tspan><tspan class="ag" x="7.08" y="0">T</tspan><tspan x="12.38" y="0">xO</tspan></tspan><tspan class="f"><tspan x="0" y="12">50</tspan></tspan><tspan class="i"><tspan x="0" y="24">CoinlD:1111</tspan></tspan></text><path class="c" d="M306.26,1c4.25,0,7.7,3.45,7.7,7.7v253.54c0,4.25-3.46,7.7-7.7,7.7H163.05c-4.25,0-7.7-3.45-7.7-7.7V8.7c0-4.25,3.46-7.7,7.7-7.7h143.2M306.26,0H163.05C158.25,0,154.35,3.9,154.35,8.7v253.54c0,4.81,3.9,8.7,8.7,8.7h143.2c4.81,0,8.7-3.9,8.7-8.7V8.7C314.96,3.9,311.06,0,306.26,0h0Z"/><polygon class="l" points="450.25 253.77 450.25 256.95 447.32 256.95 447.32 253.63 450.25 253.77"/><path class="w" d="M450.25,256.95v1.68h-6.57s-.29-.67,.39-.9c.68-.23,2.74-.57,3.25-1.25,0,0,.31,.53,.97,.37,.66-.16,1.21-.76,1.96,.11Z"/><polygon class="l" points="459.01 253.77 459.01 256.95 461.94 256.95 461.94 253.63 459.01 253.77"/><path class="w" d="M459.01,256.95v1.68h6.57s.29-.67-.39-.9c-.68-.23-2.74-.57-3.25-1.25,0,0-.31,.53-.97,.37-.66-.16-1.21-.76-1.96,.11Z"/><polygon class="q" points="462.15 212.59 454.63 212.59 447.11 212.59 446.09 255.09 450.92 255.89 454.12 220.59 454.63 220.59 455.14 220.59 458.34 255.89 463.17 255.09 462.15 212.59"/><path class="t" d="M454.63,187.33h2.27l.44,2.95s-.73,1.46-2.72,1.46-2.72-1.46-2.72-1.46l.44-2.95h2.27"/><circle class="o" cx="454.63" cy="185.7" r="2.81"/><circle class="s" cx="454.63" cy="186.37" r="2.5"/><path class="t" d="M454.63,188.5h0c-1.55,0-2.81-1.27-2.81-2.83v-3.41h5.62v3.41c0,1.56-1.26,2.83-2.81,2.83Z"/><path class="w" d="M451.82,185.12v-2.29s1.05-.62,1.92,.4c.87,1.02,3.7-.15,3.7-.15v1.96s.62-.19,.87,.35c0,0-.12-.6,.35-1.11,.47-.52,.14-2.26-1.22-2.46,0,0,.56-2.18-1.15-2.27-1.72-.09-2.48,1.29-2.48,1.29,0,0-.88-1.33-1.99-.67s-1.3,1.62-.99,3.16c.28,1.4,.34,1.73,.34,1.73,0,0,.43-.18,.65,.09Z"/><g><path class="t" d="M452.14,185.67c0,.41-.08,.74-.47,.74s-.96-.33-.96-.74,.32-.74,.72-.74,.72,.33,.72,.74Z"/><path class="t" d="M456.98,185.67c0,.41,.08,.74,.47,.74s.96-.33,.96-.74-.32-.74-.72-.74-.72,.33-.72,.74Z"/></g><path class="t" d="M441.54,220.14l.24-1.19,.55-1.47,.68-.58,.47-.11s.03,.05,.03,.06c.04,.07,.14,.14,.14,.15,0,0,.01,.53,0,.92-.02,.82,.31,.89,.44,.71,.13-.18,.12-.96,.24-1.46s.37-1.52,.33-2.3c0,0,0,.47,0-.02s.67-1.7,.67-1.7l-1.19-.77-.66,1.13c-.91,.89-1.39,1.81-1.79,2.99l-.74,.94-.78,.98s-.19,.26-.21,.34c.18,.21,.47,.17,.77-.28h0l-.5,1s-.17,.41-.17,.46c.05,.04,.11,.06,.16,.08-.02,.1-.02,.11-.03,.24,.29,.18,.61,.04,.81-.6l.08-.17-.03,.23h0l-.08,.72h0s-.03,.51,0,.49c.33,.1,.55-.14,.57-.81Z"/><path class="t" d="M467.72,220.14l-.24-1.19-.55-1.47-.68-.58-.47-.11s-.03,.05-.03,.06c-.04,.07-.14,.14-.14,.15,0,0-.01,.53,0,.92,.02,.82-.31,.89-.44,.71-.13-.18-.12-.96-.24-1.46s-.37-1.52-.33-2.3c0,0,0,.47,0-.02s-.67-1.7-.67-1.7l1.19-.77,.66,1.13c.91,.89,1.39,1.81,1.79,2.99l.74,.94,.78,.98s.19,.26,.21,.34c-.18,.21-.47,.17-.77-.28h0l.5,1s.17,.41,.17,.46c-.05,.04-.11,.06-.16,.08,.02,.1,.02,.11,.03,.24-.29,.18-.61,.04-.81-.6l-.08-.17,.03,.23h0l.08,.72h0s.03,.51,0,.49c-.33,.1-.55-.14-.57-.81Z"/><polygon class="u" points="456.93 189.19 454.63 190.67 452.33 189.19 451.73 190.03 452.39 213.3 454.63 213.3 456.87 213.3 457.52 190.03 456.93 189.19"/><g><path class="w" d="M452.33,189.19l-6.99,3.02-3.79,22.47c.31-.14,3.67,.8,3.9,1.08,.16-.61,.31-1.19,.46-1.75l.12,4.55h2.9c2.03,0,3.65-1.69,3.58-3.73l-.79-24.8,.59-.85Z"/><path class="w" d="M463.91,192.21l-6.99-3.02,.59,.85-.79,24.8c-.06,2.04,1.56,3.73,3.58,3.73h2.9l.12-4.55c.15,.56,.3,1.14,.46,1.75,.24-.28,3.6-1.21,3.9-1.08l-3.79-22.47Z"/></g><text class="e" transform="translate(445.53 270.83)"><tspan x="0" y="0">Bob</tspan></text><path class="v" d="M446.02,213.72h-.01c-.07,0-.13-.07-.12-.15l1.27-14.79c0-.07,.07-.13,.15-.12,.07,0,.13,.07,.12,.15l-1.27,14.79c0,.07-.06,.12-.13,.12Z"/><path class="v" d="M463.23,213.72h.01c.07,0,.13-.07,.12-.15l-1.27-14.79c0-.07-.07-.13-.15-.12-.07,0-.13,.07-.12,.15l1.27,14.79c0,.07,.06,.12,.13,.12Z"/><g><polygon class="m" points="451.02 189.69 451.55 190.45 453.36 192.8 454.63 190.67 452.29 188.1 451.02 189.69"/><polygon class="m" points="456.96 188.1 454.63 190.67 455.89 192.8 457.71 190.45 458.23 189.69 456.96 188.1"/></g><text class="d" transform="translate(362.49 111.29)"><tspan class="i"><tspan x="0" y="0">N</tspan><tspan class="g" x="6.96" y="0">e</tspan><tspan x="12.66" y="0">w U</tspan><tspan class="ae" x="29.53" y="0">T</tspan><tspan x="34.83" y="0">xO</tspan></tspan><tspan class="f"><tspan x="0" y="12">30</tspan></tspan><tspan class="i"><tspan x="0" y="24">CoinlD:2222</tspan></tspan></text><text class="d" transform="translate(362.93 216.85)"><tspan class="i"><tspan x="0" y="0">N</tspan><tspan class="g" x="6.96" y="0">e</tspan><tspan x="12.66" y="0">w U</tspan><tspan class="ae" x="29.53" y="0">T</tspan><tspan x="34.83" y="0">xO</tspan></tspan><tspan class="f"><tspan x="0" y="12">20</tspan></tspan><tspan class="i"><tspan x="0" y="24">CoinlD:3333</tspan></tspan></text><line class="ad" x1="154.35" y1="39.65" x2="314.96" y2="39.65"/><g><line class="ad" x1="110.53" y1="46.15" x2="141.4" y2="46.15"/><polygon class="c" points="139.94 51.13 148.57 46.15 139.94 41.16 139.94 51.13"/></g><g><line class="ad" x1="314.96" y1="119.7" x2="345.82" y2="119.7"/><polygon class="c" points="344.37 124.68 353 119.7 344.37 114.71 344.37 124.68"/></g><g><line class="ad" x1="314.96" y1="225.25" x2="345.82" y2="225.25"/><polygon class="c" points="344.37 230.24 353 225.25 344.37 220.26 344.37 230.24"/></g></svg>