<?xml version="1.0" encoding="UTF-8"?><svg id="a" xmlns="http://www.w3.org/2000/svg" viewBox="0 0 469.31 210"><defs><style>.b,.c,.d{fill:none;}.c{stroke:#5a94ff;stroke-width:3px;}.c,.e,.f,.g,.d{stroke-miterlimit:10;}.h{letter-spacing:-.02em;}.i{letter-spacing:0em;}.j{letter-spacing:-.03em;}.k,.l{fill:#fff;}.e{fill:#ffc03b;}.e,.f,.g{stroke:#fff;}.f{fill:#ff7358;}.g{fill:#5a94ff;}.d{stroke:#d3d3d8;}.m{letter-spacing:-.02em;}.l{font-family:Manrope-Medium, Manrope;font-size:10px;}</style></defs><circle class="e" cx="326.82" cy="130.83" r="10.47"/><g><line class="d" x1="283.17" y1="16.22" x2="176.63" y2="75.41"/><line class="d" x1="283.17" y1="75.41" x2="229.9" y2="75.41"/><line class="d" x1="229.9" y1="16.22" x2="229.9" y2="75.41"/><line class="d" x1="229.9" y1="16.22" x2="176.63" y2="134.59"/><line class="d" x1="16.83" y1="75.41" x2="70.1" y2="16.22"/><line class="d" x1="70.1" y1="75.41" x2="16.83" y2="75.41"/><line class="d" x1="283.17" y1="193.78" x2="229.9" y2="134.59"/><line class="d" x1="283.17" y1="75.41" x2="283.17" y2="16.22"/><line class="d" x1="123.37" y1="16.22" x2="123.37" y2="75.41"/><line class="d" x1="123.37" y1="75.41" x2="123.37" y2="134.59"/><line class="d" x1="70.1" y1="134.59" x2="70.1" y2="193.78"/><line class="d" x1="16.83" y1="16.22" x2="70.1" y2="16.22"/><line class="d" x1="16.83" y1="16.22" x2="70.1" y2="134.59"/><line class="d" x1="70.1" y1="75.41" x2="16.83" y2="134.59"/><line class="d" x1="70.1" y1="75.41" x2="123.37" y2="134.59"/><line class="d" x1="16.83" y1="134.59" x2="70.1" y2="193.78"/><line class="d" x1="16.83" y1="193.78" x2="123.37" y2="134.59"/><line class="d" x1="70.1" y1="16.22" x2="123.37" y2="75.41"/><line class="d" x1="123.37" y1="16.22" x2="70.1" y2="75.41"/><line class="d" x1="229.9" y1="193.78" x2="229.9" y2="75.41"/><line class="d" x1="229.9" y1="193.78" x2="176.63" y2="193.78"/><line class="d" x1="283.17" y1="134.59" x2="176.63" y2="75.41"/><line class="d" x1="176.63" y1="75.41" x2="123.37" y2="75.41"/><line class="d" x1="176.63" y1="134.59" x2="176.63" y2="75.41"/><line class="d" x1="194.39" y1="16.22" x2="176.63" y2="16.22"/><line class="d" x1="194.39" y1="16.22" x2="229.9" y2="16.22"/><line class="d" x1="229.9" y1="134.59" x2="176.63" y2="134.59"/><line class="d" x1="123.37" y1="193.78" x2="176.63" y2="16.22"/><line class="d" x1="70.1" y1="193.78" x2="176.63" y2="134.59"/><line class="d" x1="16.83" y1="134.59" x2="176.63" y2="75.41"/><line class="d" x1="16.83" y1="75.41" x2="176.63" y2="134.59"/><line class="d" x1="283.17" y1="193.78" x2="229.9" y2="75.41"/><line class="d" x1="123.37" y1="193.78" x2="70.1" y2="134.59"/><line class="d" x1="123.37" y1="16.22" x2="229.9" y2="75.41"/><line class="d" x1="16.83" y1="193.78" x2="70.1" y2="16.22"/><line class="d" x1="176.63" y1="16.22" x2="229.9" y2="193.78"/></g><line class="c" x1="229.9" y1="193.78" x2="283.17" y2="134.59"/><line class="c" x1="176.63" y1="193.78" x2="229.9" y2="134.59"/><line class="c" x1="283.17" y1="134.59" x2="229.9" y2="134.59"/><line class="c" x1="123.37" y1="75.41" x2="176.63" y2="193.78"/><g><circle class="f" cx="16.83" cy="16.22" r="10.47"/><circle class="f" cx="70.1" cy="75.41" r="10.47"/><circle class="f" cx="70.1" cy="134.59" r="10.47"/><circle class="f" cx="70.1" cy="193.78" r="10.47"/><circle class="f" cx="16.83" cy="75.41" r="10.47"/><circle class="f" cx="16.83" cy="134.59" r="10.47"/><circle class="f" cx="16.83" cy="193.78" r="10.47"/><circle class="f" cx="70.1" cy="16.22" r="10.47"/><circle class="f" cx="123.37" cy="16.22" r="10.47"/><circle class="e" cx="123.37" cy="75.41" r="10.47"/><circle class="f" cx="123.37" cy="134.59" r="10.47"/><circle class="f" cx="123.37" cy="193.78" r="10.47"/><circle class="f" cx="176.63" cy="16.22" r="10.47"/><circle class="f" cx="176.63" cy="75.41" r="10.47"/><circle class="f" cx="176.63" cy="134.59" r="10.47"/><circle class="g" cx="176.63" cy="193.78" r="10.47"/><circle class="f" cx="229.9" cy="16.22" r="10.47"/><circle class="f" cx="229.9" cy="75.41" r="10.47"/><circle class="g" cx="229.9" cy="134.59" r="10.47"/><circle class="e" cx="229.9" cy="193.78" r="10.47"/><circle class="f" cx="283.17" cy="16.22" r="10.47"/><circle class="f" cx="283.17" cy="75.41" r="10.47"/><circle class="g" cx="283.17" cy="134.59" r="10.47"/><circle class="f" cx="283.17" cy="193.78" r="10.47"/></g><g><g><path class="k" d="M121.45,78.88c-.55,0-1.03-.11-1.45-.33-.42-.22-.74-.54-.97-.94-.23-.4-.35-.88-.35-1.42v-4.25h1.31v4.24c0,.22,.04,.43,.11,.61,.08,.18,.18,.34,.31,.47,.13,.13,.29,.23,.47,.3,.18,.07,.37,.11,.57,.11s.4-.04,.58-.11c.18-.07,.33-.18,.47-.31,.13-.13,.24-.29,.31-.47,.07-.18,.11-.38,.11-.61v-4.25h1.31v4.26c0,.55-.12,1.02-.35,1.42-.23,.4-.56,.72-.97,.94-.42,.22-.9,.33-1.45,.33Z"/><path class="k" d="M126.73,78.74v-5.41l-1.28,.79v-1.42l1.28-.77h1.32v6.81h-1.32Z"/></g><circle class="b" cx="123.37" cy="75.41" r="10.47"/></g><g><g><path class="k" d="M226.89,197.4c-.55,0-1.03-.11-1.45-.33-.42-.22-.74-.54-.97-.94-.23-.4-.35-.88-.35-1.42v-4.25h1.31v4.24c0,.22,.04,.43,.11,.61,.08,.18,.18,.34,.31,.47,.13,.13,.29,.23,.47,.3,.18,.07,.37,.11,.57,.11s.4-.04,.58-.11c.18-.07,.33-.18,.47-.31,.13-.13,.24-.29,.31-.47,.07-.18,.11-.38,.11-.61v-4.25h1.31v4.26c0,.55-.12,1.02-.35,1.42-.23,.4-.56,.72-.97,.94-.42,.22-.9,.33-1.45,.33Z"/><path class="k" d="M230.79,197.25v-1.12l2.86-2.54c.21-.19,.37-.37,.45-.53,.09-.17,.13-.32,.13-.47,0-.21-.04-.39-.13-.56-.09-.16-.21-.29-.36-.38-.15-.09-.34-.14-.54-.14s-.41,.05-.57,.15c-.17,.1-.29,.23-.39,.39-.09,.16-.13,.34-.13,.53h-1.33c0-.47,.1-.87,.31-1.21s.49-.6,.86-.79c.37-.19,.79-.28,1.28-.28,.45,0,.84,.1,1.2,.29,.35,.19,.63,.46,.83,.81s.3,.75,.3,1.21c0,.34-.05,.62-.14,.84-.09,.22-.24,.43-.42,.62-.19,.19-.41,.4-.69,.64l-1.85,1.62-.1-.28h3.2v1.21h-4.77Z"/></g><circle class="b" cx="229.84" cy="193.85" r="10.47"/></g><path class="k" d="M299,1V209H1V1H299M300,0H0V210H300V0h0Z"/><circle class="f" cx="326.82" cy="193.78" r="10.47"/><circle class="e" cx="326.82" cy="162.34" r="10.47"/><circle class="g" cx="326.82" cy="99.32" r="10.47"/><text class="l" transform="translate(345.14 102.95)"><tspan class="h" x="0" y="0">P</tspan><tspan class="j" x="5.96" y="0">a</tspan><tspan x="11.28" y="0">y</tspan><tspan class="i" x="16.66" y="0">m</tspan><tspan class="m" x="25.26" y="0">e</tspan><tspan x="31.01" y="0">nt Chan</tspan><tspan class="i" x="68.12" y="0">n</tspan><tspan x="74.11" y="0">el</tspan></text><text class="l" transform="translate(345.14 134.39)"><tspan x="0" y="0">User 1</tspan></text><text class="l" transform="translate(345.14 165.83)"><tspan x="0" y="0">User 1</tspan></text><text class="l" transform="translate(345.14 197.41)"><tspan x="0" y="0">Minima Nodes</tspan></text><g><g><path class="k" d="M323.87,165.89c-.55,0-1.03-.11-1.45-.33-.42-.22-.74-.54-.97-.94-.23-.4-.35-.88-.35-1.42v-4.25h1.31v4.24c0,.22,.04,.43,.11,.61,.08,.18,.18,.34,.31,.47,.13,.13,.29,.23,.47,.3,.18,.07,.37,.11,.57,.11s.4-.04,.58-.11c.18-.07,.33-.18,.47-.31,.13-.13,.24-.29,.31-.47,.07-.18,.11-.38,.11-.61v-4.25h1.31v4.26c0,.55-.12,1.02-.35,1.42-.23,.4-.56,.72-.97,.94-.42,.22-.9,.33-1.45,.33Z"/><path class="k" d="M327.78,165.74v-1.12l2.86-2.54c.21-.19,.37-.37,.45-.53,.09-.17,.13-.32,.13-.47,0-.21-.04-.39-.13-.56-.09-.16-.21-.29-.36-.38-.15-.09-.34-.14-.54-.14s-.41,.05-.57,.15c-.17,.1-.29,.23-.39,.39-.09,.16-.13,.34-.13,.53h-1.33c0-.47,.1-.87,.31-1.21s.49-.6,.86-.79c.37-.19,.79-.28,1.28-.28,.45,0,.84,.1,1.2,.29,.35,.19,.63,.46,.83,.81s.3,.75,.3,1.21c0,.34-.05,.62-.14,.84-.09,.22-.24,.43-.42,.62-.19,.19-.41,.4-.69,.64l-1.85,1.62-.1-.28h3.2v1.21h-4.77Z"/></g><circle class="b" cx="326.82" cy="162.34" r="10.47"/></g><g><circle class="b" cx="326.82" cy="130.83" r="10.47"/><g><path class="k" d="M324.91,134.31c-.55,0-1.03-.11-1.45-.33-.42-.22-.74-.54-.97-.94-.23-.4-.35-.88-.35-1.42v-4.25h1.31v4.24c0,.22,.04,.43,.11,.61,.08,.18,.18,.34,.31,.47,.13,.13,.29,.23,.47,.3,.18,.07,.37,.11,.57,.11s.4-.04,.58-.11c.18-.07,.33-.18,.47-.31,.13-.13,.24-.29,.31-.47,.07-.18,.11-.38,.11-.61v-4.25h1.31v4.26c0,.55-.12,1.02-.35,1.42-.23,.4-.56,.72-.97,.94-.42,.22-.9,.33-1.45,.33Z"/><path class="k" d="M330.19,134.17v-5.41l-1.28,.79v-1.42l1.28-.77h1.32v6.81h-1.32Z"/></g></g></svg>