<?xml version="1.0" encoding="UTF-8"?><svg id="a" xmlns="http://www.w3.org/2000/svg" viewBox="0 0 452.44 171.03"><defs><style>.b{letter-spacing:-.02em;}.c,.d{fill:#fff;}.e{letter-spacing:-.01em;}.f{letter-spacing:-.01em;}.g{letter-spacing:0em;}.h{letter-spacing:-.04em;}.i{fill:#363b40;}.i,.d{font-family:Manrope-Medium, Manrope;font-size:12px;}</style></defs><text class="d" transform="translate(12.09 22.55)"><tspan x="0" y="0">Gaming </tspan></text><path class="c" d="M132.65,2c3.31,0,6,2.69,6,6v62.21c0,3.31-2.69,6-6,6H8c-3.31,0-6-2.69-6-6V8C2,4.69,4.69,2,8,2h124.65M132.65,0H8C3.58,0,0,3.58,0,8v62.21C0,74.63,3.58,78.21,8,78.21h124.65c4.42,0,8-3.58,8-8V8C140.65,3.58,137.07,0,132.65,0h0Z"/><text class="d" transform="translate(167.98 22.55)"><tspan x="0" y="0">So</tspan><tspan class="f" x="14.77" y="0">c</tspan><tspan x="21.33" y="0">ial</tspan></text><text class="i" transform="translate(202.02 22.55)"><tspan x="0" y="0"> </tspan></text><text class="d" transform="translate(167.98 36.95)"><tspan class="g" x="0" y="0">m</tspan><tspan x="10.33" y="0">essaging</tspan></text><path class="c" d="M288.54,2c3.31,0,6,2.69,6,6v62.21c0,3.31-2.69,6-6,6h-124.65c-3.31,0-6-2.69-6-6V8c0-3.31,2.69-6,6-6h124.65M288.54,0h-124.65C159.47,0,155.89,3.58,155.89,8v62.21c0,4.42,3.58,8,8,8h124.65c4.42,0,8-3.58,8-8V8C296.54,3.58,292.96,0,288.54,0h0Z"/><text class="d" transform="translate(167.98 115.36)"><tspan x="0" y="0">Defi</tspan></text><path class="c" d="M288.54,94.81c3.31,0,6,2.69,6,6v62.21c0,3.31-2.69,6-6,6h-124.65c-3.31,0-6-2.69-6-6v-62.21c0-3.31,2.69-6,6-6h124.65m0-2h-124.65c-4.42,0-8,3.58-8,8v62.21c0,4.42,3.58,8,8,8h124.65c4.42,0,8-3.58,8-8v-62.21c0-4.42-3.58-8-8-8h0Z"/><text class="d" transform="translate(323.87 115.36)"><tspan class="h" x="0" y="0">W</tspan><tspan x="10.86" y="0">allet</tspan></text><path class="c" d="M444.44,94.81c3.31,0,6,2.69,6,6v62.21c0,3.31-2.69,6-6,6h-124.65c-3.31,0-6-2.69-6-6v-62.21c0-3.31,2.69-6,6-6h124.65m0-2h-124.65c-4.42,0-8,3.58-8,8v62.21c0,4.42,3.58,8,8,8h124.65c4.42,0,8-3.58,8-8v-62.21c0-4.42-3.58-8-8-8h0Z"/><text class="d" transform="translate(323.87 22.55)"><tspan x="0" y="0">Id</tspan><tspan class="e" x="10.19" y="0">e</tspan><tspan x="17.11" y="0">nti</tspan><tspan class="f" x="32.29" y="0">t</tspan><tspan x="37.06" y="0">y</tspan></text><path class="c" d="M444.44,2c3.31,0,6,2.69,6,6v62.21c0,3.31-2.69,6-6,6h-124.65c-3.31,0-6-2.69-6-6V8c0-3.31,2.69-6,6-6h124.65M444.44,0h-124.65C315.36,0,311.78,3.58,311.78,8v62.21c0,4.42,3.58,8,8,8h124.65c4.42,0,8-3.58,8-8V8C452.44,3.58,448.85,0,444.44,0h0Z"/><text class="d" transform="translate(12.09 115.36)"><tspan x="0" y="0">E</tspan><tspan class="b" x="6.9" y="0">x</tspan><tspan x="13.09" y="0">change</tspan></text><path class="c" d="M132.65,94.81c3.31,0,6,2.69,6,6v62.21c0,3.31-2.69,6-6,6H8c-3.31,0-6-2.69-6-6v-62.21c0-3.31,2.69-6,6-6h124.65m0-2H8C3.58,92.81,0,96.39,0,100.81v62.21C0,167.44,3.58,171.03,8,171.03h124.65c4.42,0,8-3.58,8-8v-62.21c0-4.42-3.58-8-8-8h0Z"/></svg>