<?xml version="1.0" encoding="UTF-8"?><svg id="a" xmlns="http://www.w3.org/2000/svg" viewBox="0 0 469.31 502.65"><defs><style>.b,.c{fill:#363a3f;}.d{letter-spacing:-.02em;}.e{letter-spacing:-.06em;}.f{letter-spacing:-.06em;}.g{fill:none;stroke:#363a3f;stroke-miterlimit:10;}.c,.h,.i{font-family:Manrope-Medium, Manrope;font-size:12px;}.h{fill:#5a94ff;}.i{fill:#ff7358;}</style></defs><text class="i" transform="translate(13.99 16.87)"><tspan x="0" y="0">Ambassador Rank</tspan></text><text class="i" transform="translate(254.83 16.87)"><tspan x="0" y="0">X</tspan><tspan class="d" x="7.47" y="0">P</tspan><tspan x="14.64" y="0" xml:space="preserve"> Level</tspan></text><text class="i" transform="translate(371.06 16.87)"><tspan x="0" y="0">X</tspan><tspan class="d" x="7.47" y="0">P</tspan><tspan x="14.64" y="0" xml:space="preserve"> Points</tspan></text><text class="h" transform="translate(13.99 53.95)"><tspan x="0" y="0">Minidebutant</tspan></text><text class="c" transform="translate(254.83 42.03)"><tspan x="0" y="0">1</tspan></text><text class="c" transform="translate(371.06 42.03)"><tspan x="0" y="0">0</tspan></text><text class="c" transform="translate(254.83 67.19)"><tspan x="0" y="0">2</tspan></text><text class="c" transform="translate(371.06 67.19)"><tspan x="0" y="0">300</tspan></text><text class="h" transform="translate(13.99 116.26)"><tspan x="0" y="0">Minimalist</tspan></text><text class="c" transform="translate(254.83 92.35)"><tspan x="0" y="0">3</tspan></text><text class="c" transform="translate(371.06 92.35)"><tspan x="0" y="0">800</tspan></text><text class="c" transform="translate(254.83 117.51)"><tspan x="0" y="0">4</tspan></text><text class="c" transform="translate(371.06 117.51)"><tspan x="0" y="0">1500</tspan></text><text class="c" transform="translate(254.83 142.68)"><tspan x="0" y="0">5</tspan></text><text class="c" transform="translate(371.06 142.68)"><tspan x="0" y="0">2400</tspan></text><text class="h" transform="translate(13.99 230.09)"><tspan x="0" y="0">Maximalist</tspan></text><text class="c" transform="translate(254.83 167.84)"><tspan x="0" y="0">6</tspan></text><text class="c" transform="translate(371.06 167.84)"><tspan x="0" y="0">3500</tspan></text><text class="c" transform="translate(254.83 193)"><tspan x="0" y="0">7</tspan></text><text class="c" transform="translate(371.06 193)"><tspan x="0" y="0">4800</tspan></text><text class="c" transform="translate(254.83 218.17)"><tspan x="0" y="0">8</tspan></text><text class="c" transform="translate(371.06 218.17)"><tspan x="0" y="0">6300</tspan></text><text class="c" transform="translate(254.83 243.33)"><tspan x="0" y="0">9</tspan></text><text class="c" transform="translate(371.06 243.33)"><tspan x="0" y="0">8000</tspan></text><text class="c" transform="translate(254.83 268.49)"><tspan x="0" y="0">10</tspan></text><text class="c" transform="translate(371.06 268.49)"><tspan x="0" y="0">9900</tspan></text><text class="c" transform="translate(254.83 293.65)"><tspan x="0" y="0">11</tspan></text><text class="c" transform="translate(371.06 293.65)"><tspan x="0" y="0">12000</tspan></text><text class="h" transform="translate(13.99 393.04)"><tspan x="0" y="0">Minima</tspan><tspan class="f" x="40.51" y="0"> </tspan><tspan x="42.25" y="0">Ambassador</tspan></text><text class="c" transform="translate(254.83 318.81)"><tspan x="0" y="0">12</tspan></text><text class="c" transform="translate(371.06 318.81)"><tspan x="0" y="0">14300</tspan></text><text class="c" transform="translate(254.83 343.98)"><tspan x="0" y="0">13</tspan></text><text class="c" transform="translate(371.06 343.98)"><tspan x="0" y="0">16800</tspan></text><text class="c" transform="translate(254.83 369.14)"><tspan x="0" y="0">14</tspan></text><text class="c" transform="translate(371.06 369.14)"><tspan x="0" y="0">19500</tspan></text><text class="c" transform="translate(254.83 394.3)"><tspan x="0" y="0">15</tspan></text><text class="c" transform="translate(371.06 394.3)"><tspan x="0" y="0">22400</tspan></text><text class="c" transform="translate(254.83 419.46)"><tspan x="0" y="0">16</tspan></text><text class="c" transform="translate(371.06 419.46)"><tspan x="0" y="0">25500</tspan></text><text class="c" transform="translate(254.83 444.63)"><tspan x="0" y="0">17</tspan></text><text class="c" transform="translate(371.06 444.63)"><tspan x="0" y="0">28800</tspan></text><text class="c" transform="translate(254.83 469.79)"><tspan x="0" y="0">18</tspan></text><text class="c" transform="translate(371.06 469.79)"><tspan x="0" y="0">32300</tspan></text><text class="h" transform="translate(13.99 494.95)"><tspan x="0" y="0">Minima Grand</tspan><tspan class="e" x="77.17" y="0"> </tspan><tspan x="78.91" y="0">Ambassador</tspan></text><text class="c" transform="translate(254.83 494.95)"><tspan x="0" y="0">19</tspan></text><text class="c" transform="translate(371.06 494.95)"><tspan x="0" y="0">36000</tspan></text><g><line class="g" x1="469.31" y1="452.92" x2="226.08" y2="452.92"/><line class="g" x1="469.31" y1="427.76" x2="226.08" y2="427.76"/><line class="g" x1="469.31" y1="402.6" x2="226.08" y2="402.6"/><line class="g" x1="469.31" y1="377.44" x2="226.08" y2="377.44"/><line class="g" x1="469.31" y1="352.27" x2="226.08" y2="352.27"/><line class="g" x1="469.31" y1="327.11" x2="226.08" y2="327.11"/><line class="g" x1="469.31" y1="276.79" x2="226.08" y2="276.79"/><line class="g" x1="469.31" y1="251.62" x2="226.08" y2="251.62"/><line class="g" x1="469.31" y1="226.46" x2="226.08" y2="226.46"/><line class="g" x1="469.31" y1="201.3" x2="226.08" y2="201.3"/><line class="g" x1="469.31" y1="176.14" x2="226.08" y2="176.14"/><line class="g" x1="469.31" y1="125.81" x2="226.08" y2="125.81"/><line class="g" x1="469.31" y1="100.65" x2="226.08" y2="100.65"/><line class="g" x1="469.31" y1="75.49" y2="75.49"/><line class="g" x1="469.31" y1="50.32" x2="226.08" y2="50.32"/><line class="g" x1="347.7" x2="347.7" y2="502.65"/><line class="g" x1="226.08" x2="226.08" y2="502.65"/><line class="g" x1="469.31" y1="478.09" y2="478.09"/><line class="g" x1="469.31" y1="301.95" y2="301.95"/><line class="g" x1="469.31" y1="150.97" y2="150.97"/><line class="g" x1="469.31" y1="25.16" y2="25.16"/><path class="b" d="M468.31,1V501.65H1V1H468.31M469.31,0H0V502.65H469.31V0h0Z"/></g></svg>