<?xml version="1.0" encoding="UTF-8"?><svg id="a" xmlns="http://www.w3.org/2000/svg" viewBox="0 0 469.31 210"><defs><style>.b,.c,.d,.e{fill:none;}.f{letter-spacing:-.01em;}.c,.g,.h,.i,.d{stroke:#363a3f;}.c,.g,.h,.i,.e{stroke-miterlimit:10;}.c,.d{stroke-width:3px;}.j{letter-spacing:0em;}.k{letter-spacing:0em;}.l{fill:#91919d;}.m,.n{fill:#363a3f;}.o{letter-spacing:0em;}.g{fill:#ffc03b;}.h{fill:#b573a5;}.i{fill:#6db79b;}.d{stroke-dasharray:0 0 5 9;stroke-miterlimit:3;}.p{letter-spacing:-.02em;}.q{letter-spacing:-.02em;}.r{letter-spacing:0em;}.s{letter-spacing:0em;}.n{font-family:Manrope-Medium, Manrope;font-size:10px;}.t{letter-spacing:0em;}.e{stroke:#91919d;stroke-width:.98px;}</style></defs><line class="c" x1="123.37" y1="134.59" x2="16.83" y2="75.41"/><line class="c" x1="123.37" y1="134.59" x2="16.83" y2="193.78"/><g><line class="e" x1="91.38" y1="141.91" x2="60.08" y2="159.3"/><polygon class="l" points="60.27 157.25 55.54 161.82 61.92 160.23 60.27 157.25"/></g><g><line class="e" x1="100.24" y1="157.86" x2="68.94" y2="175.25"/><polygon class="l" points="69.12 173.2 64.4 177.76 70.78 176.17 69.12 173.2"/></g><g><line class="e" x1="98.48" y1="110.34" x2="67.18" y2="92.95"/><polygon class="l" points="69.02 92.02 62.64 90.43 67.37 95 69.02 92.02"/></g><g><line class="e" x1="89.62" y1="126.28" x2="58.32" y2="108.89"/><polygon class="l" points="60.16 107.97 53.79 106.37 58.51 110.94 60.16 107.97"/></g><g><line class="e" x1="145.62" y1="107.36" x2="160.31" y2="74.71"/><polygon class="l" points="161.39 76.46 162.44 69.98 158.29 75.07 161.39 76.46"/></g><g><line class="e" x1="128.99" y1="99.88" x2="143.68" y2="67.22"/><polygon class="l" points="144.76 68.98 145.81 62.49 141.66 67.58 144.76 68.98"/></g><g><line class="e" x1="37.78" y1="65.76" x2="61.73" y2="39.14"/><polygon class="l" points="62.22 41.14 65.2 35.29 59.69 38.87 62.22 41.14"/></g><g><line class="e" x1="24.23" y1="53.56" x2="48.18" y2="26.94"/><polygon class="l" points="48.67 28.94 51.65 23.09 46.14 26.67 48.67 28.94"/></g><g><line class="e" x1="208.85" y1="25.34" x2="244.66" y2="25.34"/><polygon class="l" points="243.5 27.04 249.84 25.34 243.5 23.64 243.5 27.04"/></g><g><line class="e" x1="208.85" y1="7.1" x2="244.66" y2="7.1"/><polygon class="l" points="243.5 8.8 249.84 7.1 243.5 5.4 243.5 8.8"/></g><g><line class="e" x1="234.7" y1="94.37" x2="258.66" y2="120.99"/><polygon class="l" points="256.62 121.26 262.13 124.84 259.14 118.99 256.62 121.26"/></g><g><line class="e" x1="248.26" y1="82.17" x2="272.21" y2="108.79"/><polygon class="l" points="270.17 109.06 275.68 112.64 272.7 106.79 270.17 109.06"/></g><g><line class="e" x1="96.95" y1="202.9" x2="132.76" y2="202.9"/><polygon class="l" points="131.6 204.6 137.94 202.9 131.6 201.2 131.6 204.6"/></g><g><line class="e" x1="96.95" y1="184.66" x2="132.76" y2="184.66"/><polygon class="l" points="131.6 186.36 137.94 184.66 131.6 182.96 131.6 186.36"/></g><g><line class="e" x1="163.67" y1="122.63" x2="194.97" y2="105.24"/><polygon class="l" points="194.78 107.3 199.5 102.73 193.13 104.32 194.78 107.3"/></g><g><line class="e" x1="154.81" y1="106.69" x2="186.11" y2="89.3"/><polygon class="l" points="185.92 91.35 190.65 86.79 184.27 88.38 185.92 91.35"/></g><line class="c" x1="123.37" y1="134.59" x2="176.63" y2="16.22"/><line class="c" x1="123.37" y1="134.59" x2="229.9" y2="75.41"/><line class="d" x1="229.9" y1="75.41" x2="283.17" y2="134.59"/><line class="d" x1="16.83" y1="193.78" x2="176.63" y2="193.78"/><line class="d" x1="16.83" y1="75.41" x2="70.1" y2="16.22"/><line class="d" x1="176.63" y1="16.22" x2="283.17" y2="16.22"/><g><circle class="b" cx="16.83" cy="16.22" r="10.47"/><circle class="b" cx="70.1" cy="75.41" r="10.47"/><circle class="b" cx="70.1" cy="134.59" r="10.47"/><circle class="b" cx="70.1" cy="193.78" r="10.47"/><circle class="i" cx="16.83" cy="75.41" r="10.47"/><circle class="b" cx="16.83" cy="134.59" r="10.47"/><circle class="i" cx="16.83" cy="193.78" r="10.47"/><circle class="h" cx="70.1" cy="16.22" r="10.47"/><circle class="b" cx="123.37" cy="16.22" r="10.47"/><circle class="b" cx="123.37" cy="75.41" r="10.47"/><circle class="g" cx="123.37" cy="134.59" r="10.47"/><circle class="b" cx="123.37" cy="193.78" r="10.47"/><circle class="i" cx="176.63" cy="16.22" r="10.47"/><circle class="b" cx="176.63" cy="75.41" r="10.47"/><circle class="b" cx="176.63" cy="134.59" r="10.47"/><circle class="h" cx="176.63" cy="193.78" r="10.47"/><circle class="b" cx="229.9" cy="16.22" r="10.47"/><circle class="i" cx="229.9" cy="75.41" r="10.47"/><circle class="b" cx="229.9" cy="134.59" r="10.47"/><circle class="b" cx="229.9" cy="193.78" r="10.47"/><circle class="h" cx="283.17" cy="16.22" r="10.47"/><circle class="b" cx="283.17" cy="75.41" r="10.47"/><circle class="h" cx="283.17" cy="134.59" r="10.47"/><circle class="b" cx="283.17" cy="193.78" r="10.47"/></g><g><path class="m" d="M176.62,19.63v-5.41l-1.28,.79v-1.42l1.28-.77h1.32v6.81h-1.32Z"/><circle class="b" cx="176.63" cy="16.22" r="10.47"/></g><g><path class="m" d="M16.81,78.81v-5.41l-1.28,.79v-1.42l1.28-.77h1.32v6.81h-1.32Z"/><circle class="b" cx="16.83" cy="75.41" r="10.47"/></g><g><path class="m" d="M16.81,197.19v-5.41l-1.28,.79v-1.42l1.28-.77h1.32v6.81h-1.32Z"/><circle class="b" cx="16.83" cy="193.78" r="10.47"/></g><g><path class="m" d="M229.88,78.81v-5.41l-1.28,.79v-1.42l1.28-.77h1.32v6.81h-1.32Z"/><circle class="b" cx="229.9" cy="75.41" r="10.47"/></g><g><path class="m" d="M280.79,19.69v-1.12l2.86-2.54c.21-.19,.37-.37,.45-.53,.09-.17,.13-.32,.13-.47,0-.21-.04-.39-.13-.56-.09-.16-.21-.29-.36-.38-.15-.09-.34-.14-.54-.14s-.41,.05-.57,.15c-.17,.1-.29,.23-.39,.39-.09,.16-.13,.34-.13,.53h-1.33c0-.47,.1-.87,.31-1.21s.49-.6,.86-.79c.37-.19,.79-.28,1.28-.28,.45,0,.84,.1,1.2,.29,.35,.19,.63,.46,.83,.81s.3,.75,.3,1.21c0,.34-.05,.62-.14,.84-.09,.22-.24,.43-.42,.62-.19,.19-.41,.4-.69,.64l-1.85,1.62-.1-.28h3.2v1.21h-4.77Z"/><circle class="b" cx="283.17" cy="16.22" r="10.47"/></g><g><path class="m" d="M280.79,138.07v-1.12l2.86-2.54c.21-.19,.37-.37,.45-.53,.09-.17,.13-.32,.13-.47,0-.21-.04-.39-.13-.56-.09-.16-.21-.29-.36-.38-.15-.09-.34-.14-.54-.14s-.41,.05-.57,.15c-.17,.1-.29,.23-.39,.39-.09,.16-.13,.34-.13,.53h-1.33c0-.47,.1-.87,.31-1.21s.49-.6,.86-.79c.37-.19,.79-.28,1.28-.28,.45,0,.84,.1,1.2,.29,.35,.19,.63,.46,.83,.81s.3,.75,.3,1.21c0,.34-.05,.62-.14,.84-.09,.22-.24,.43-.42,.62-.19,.19-.41,.4-.69,.64l-1.85,1.62-.1-.28h3.2v1.21h-4.77Z"/><circle class="b" cx="283.17" cy="134.59" r="10.47"/></g><g><path class="m" d="M174.25,197.25v-1.12l2.86-2.54c.21-.19,.37-.37,.45-.53,.09-.17,.13-.32,.13-.47,0-.21-.04-.39-.13-.56-.09-.16-.21-.29-.36-.38-.15-.09-.34-.14-.54-.14s-.41,.05-.57,.15c-.17,.1-.29,.23-.39,.39-.09,.16-.13,.34-.13,.53h-1.33c0-.47,.1-.87,.31-1.21s.49-.6,.86-.79c.37-.19,.79-.28,1.28-.28,.45,0,.84,.1,1.2,.29,.35,.19,.63,.46,.83,.81s.3,.75,.3,1.21c0,.34-.05,.62-.14,.84-.09,.22-.24,.43-.42,.62-.19,.19-.41,.4-.69,.64l-1.85,1.62-.1-.28h3.2v1.21h-4.77Z"/><circle class="b" cx="176.63" cy="193.78" r="10.47"/></g><g><path class="m" d="M67.71,19.69v-1.12l2.86-2.54c.21-.19,.37-.37,.45-.53,.09-.17,.13-.32,.13-.47,0-.21-.04-.39-.13-.56-.09-.16-.21-.29-.36-.38-.15-.09-.34-.14-.54-.14s-.41,.05-.57,.15c-.17,.1-.29,.23-.39,.39-.09,.16-.13,.34-.13,.53h-1.33c0-.47,.1-.87,.31-1.21s.49-.6,.86-.79c.37-.19,.79-.28,1.28-.28,.45,0,.84,.1,1.2,.29,.35,.19,.63,.46,.83,.81s.3,.75,.3,1.21c0,.34-.05,.62-.14,.84-.09,.22-.24,.43-.42,.62-.19,.19-.41,.4-.69,.64l-1.85,1.62-.1-.28h3.2v1.21h-4.77Z"/><circle class="b" cx="70.1" cy="16.22" r="10.47"/></g><circle class="b" cx="123.37" cy="134.59" r="10.47"/><g><circle class="b" cx="123.37" cy="134.59" r="10.47"/><g><path class="m" d="M121.45,138.07c-.55,0-1.03-.11-1.45-.33-.42-.22-.74-.54-.97-.94-.23-.4-.35-.88-.35-1.42v-4.25h1.31v4.24c0,.22,.04,.43,.11,.61,.08,.18,.18,.34,.31,.47,.13,.13,.29,.23,.47,.3,.18,.07,.37,.11,.57,.11s.4-.04,.58-.11c.18-.07,.33-.18,.47-.31,.13-.13,.24-.29,.31-.47,.07-.18,.11-.38,.11-.61v-4.25h1.31v4.26c0,.55-.12,1.02-.35,1.42-.23,.4-.56,.72-.97,.94-.42,.22-.9,.33-1.45,.33Z"/><path class="m" d="M126.73,137.93v-5.41l-1.28,.79v-1.42l1.28-.77h1.32v6.81h-1.32Z"/></g></g><path class="m" d="M299,1V209H1V1H299M300,0H0V210H300V0h0Z"/><path class="m" d="M299,1V209H1V1H299M300,0H0V210H300V0h0Z"/><circle class="h" cx="326.82" cy="193.78" r="10.47"/><g><path class="m" d="M324.44,197.25v-1.12l2.86-2.54c.21-.19,.37-.37,.45-.53,.09-.17,.13-.32,.13-.47,0-.21-.04-.39-.13-.56-.09-.16-.21-.29-.36-.38-.15-.09-.34-.14-.54-.14s-.41,.05-.57,.15c-.17,.1-.29,.23-.39,.39-.09,.16-.13,.34-.13,.53h-1.33c0-.47,.1-.87,.31-1.21s.49-.6,.86-.79c.37-.19,.79-.28,1.28-.28,.45,0,.84,.1,1.2,.29,.35,.19,.63,.46,.83,.81s.3,.75,.3,1.21c0,.34-.05,.62-.14,.84-.09,.22-.24,.43-.42,.62-.19,.19-.41,.4-.69,.64l-1.85,1.62-.1-.28h3.2v1.21h-4.77Z"/><circle class="b" cx="326.82" cy="193.78" r="10.47"/></g><circle class="i" cx="326.82" cy="162.34" r="10.47"/><circle class="g" cx="326.82" cy="130.9" r="10.47"/><g><path class="m" d="M326.8,165.75v-5.41l-1.28,.79v-1.42l1.28-.77h1.32v6.81h-1.32Z"/><circle class="b" cx="326.82" cy="162.34" r="10.47"/></g><g><circle class="b" cx="326.82" cy="130.9" r="10.47"/><g><path class="m" d="M324.91,134.38c-.55,0-1.03-.11-1.45-.33-.42-.22-.74-.54-.97-.94-.23-.4-.35-.88-.35-1.42v-4.25h1.31v4.24c0,.22,.04,.43,.11,.61,.08,.18,.18,.34,.31,.47,.13,.13,.29,.23,.47,.3,.18,.07,.37,.11,.57,.11s.4-.04,.58-.11c.18-.07,.33-.18,.47-.31,.13-.13,.24-.29,.31-.47,.07-.18,.11-.38,.11-.61v-4.25h1.31v4.26c0,.55-.12,1.02-.35,1.42-.23,.4-.56,.72-.97,.94-.42,.22-.9,.33-1.45,.33Z"/><path class="m" d="M330.19,134.24v-5.41l-1.28,.79v-1.42l1.28-.77h1.32v6.81h-1.32Z"/></g></g><text class="n" transform="translate(345.14 134.53)"><tspan x="0" y="0">User 1 s</tspan><tspan class="q" x="35.39" y="0">e</tspan><tspan class="t" x="41.14" y="0">n</tspan><tspan x="47.14" y="0">ding </tspan><tspan class="s" x="69.68" y="0">m</tspan><tspan x="78.28" y="0">essages</tspan></text><text class="n" transform="translate(345.14 165.97)"><tspan x="0" y="0">1st deg</tspan><tspan class="f" x="33.39" y="0">r</tspan><tspan x="37.02" y="0">ee </tspan><tspan class="p" x="50.83" y="0">c</tspan><tspan class="j" x="56.29" y="0">on</tspan><tspan class="k" x="68.34" y="0">n</tspan><tspan x="74.34" y="0">ections</tspan></text><text class="n" transform="translate(345.14 197.41)"><tspan x="0" y="0">2</tspan><tspan class="t" x="5.79" y="0">n</tspan><tspan x="11.78" y="0">d deg</tspan><tspan class="r" x="37.69" y="0">r</tspan><tspan class="o" x="41.33" y="0">ee </tspan><tspan class="q" x="55.14" y="0">c</tspan><tspan x="60.6" y="0">on</tspan><tspan class="t" x="72.65" y="0">n</tspan><tspan x="78.64" y="0">ections</tspan></text></svg>