<?xml version="1.0" encoding="UTF-8"?><svg id="a" xmlns="http://www.w3.org/2000/svg" viewBox="0 0 469.31 210"><defs><style>.b,.c{fill:#fff;}.d{fill:#ff7358;stroke:#fff;}.d,.e{stroke-miterlimit:10;}.e{fill:none;stroke:#d3d3d8;}.c{font-family:Manrope-Medium, Manrope;font-size:10px;}</style></defs><line class="e" x1="283.17" y1="16.22" x2="176.63" y2="75.41"/><line class="e" x1="283.17" y1="75.41" x2="229.9" y2="75.41"/><line class="e" x1="229.9" y1="16.22" x2="229.9" y2="75.41"/><line class="e" x1="229.9" y1="16.22" x2="176.63" y2="134.59"/><line class="e" x1="16.83" y1="75.41" x2="70.1" y2="16.22"/><line class="e" x1="70.1" y1="75.41" x2="16.83" y2="75.41"/><line class="e" x1="123.37" y1="75.41" x2="176.63" y2="193.78"/><line class="e" x1="283.17" y1="193.78" x2="229.9" y2="134.59"/><line class="e" x1="283.17" y1="75.41" x2="283.17" y2="16.22"/><line class="e" x1="123.37" y1="16.22" x2="123.37" y2="75.41"/><line class="e" x1="123.37" y1="75.41" x2="123.37" y2="134.59"/><line class="e" x1="70.1" y1="134.59" x2="70.1" y2="193.78"/><line class="e" x1="16.83" y1="16.22" x2="70.1" y2="16.22"/><line class="e" x1="16.83" y1="16.22" x2="70.1" y2="134.59"/><line class="e" x1="70.1" y1="75.41" x2="16.83" y2="134.59"/><line class="e" x1="70.1" y1="75.41" x2="123.37" y2="134.59"/><line class="e" x1="16.83" y1="134.59" x2="70.1" y2="193.78"/><line class="e" x1="16.83" y1="193.78" x2="123.37" y2="134.59"/><line class="e" x1="70.1" y1="16.22" x2="123.37" y2="75.41"/><line class="e" x1="123.37" y1="16.22" x2="70.1" y2="75.41"/><line class="e" x1="229.9" y1="193.78" x2="229.9" y2="75.41"/><line class="e" x1="229.9" y1="193.78" x2="176.63" y2="193.78"/><line class="e" x1="229.9" y1="193.78" x2="283.17" y2="134.59"/><line class="e" x1="283.17" y1="134.59" x2="176.63" y2="75.41"/><line class="e" x1="176.63" y1="75.41" x2="123.37" y2="75.41"/><line class="e" x1="176.63" y1="134.59" x2="176.63" y2="75.41"/><line class="e" x1="194.39" y1="16.22" x2="176.63" y2="16.22"/><line class="e" x1="194.39" y1="16.22" x2="229.9" y2="16.22"/><line class="e" x1="229.9" y1="134.59" x2="176.63" y2="134.59"/><line class="e" x1="123.37" y1="193.78" x2="176.63" y2="16.22"/><line class="e" x1="70.1" y1="193.78" x2="176.63" y2="134.59"/><line class="e" x1="176.63" y1="193.78" x2="229.9" y2="134.59"/><line class="e" x1="16.83" y1="134.59" x2="176.63" y2="75.41"/><line class="e" x1="16.83" y1="75.41" x2="176.63" y2="134.59"/><line class="e" x1="283.17" y1="193.78" x2="229.9" y2="75.41"/><line class="e" x1="123.37" y1="193.78" x2="70.1" y2="134.59"/><line class="e" x1="123.37" y1="16.22" x2="229.9" y2="75.41"/><line class="e" x1="16.83" y1="193.78" x2="70.1" y2="16.22"/><line class="e" x1="176.63" y1="16.22" x2="229.9" y2="193.78"/><g><circle class="d" cx="16.83" cy="16.22" r="10.47"/><circle class="d" cx="70.1" cy="75.41" r="10.47"/><circle class="d" cx="70.1" cy="134.59" r="10.47"/><circle class="d" cx="70.1" cy="193.78" r="10.47"/><circle class="d" cx="16.83" cy="75.41" r="10.47"/><circle class="d" cx="16.83" cy="134.59" r="10.47"/><circle class="d" cx="16.83" cy="193.78" r="10.47"/><circle class="d" cx="70.1" cy="16.22" r="10.47"/><circle class="d" cx="123.37" cy="16.22" r="10.47"/><circle class="d" cx="123.37" cy="75.41" r="10.47"/><circle class="d" cx="123.37" cy="134.59" r="10.47"/><circle class="d" cx="123.37" cy="193.78" r="10.47"/><circle class="d" cx="176.63" cy="16.22" r="10.47"/><circle class="d" cx="176.63" cy="75.41" r="10.47"/><circle class="d" cx="176.63" cy="134.59" r="10.47"/><circle class="d" cx="176.63" cy="193.78" r="10.47"/><circle class="d" cx="229.9" cy="16.22" r="10.47"/><circle class="d" cx="229.9" cy="75.41" r="10.47"/><circle class="d" cx="229.9" cy="134.59" r="10.47"/><circle class="d" cx="229.9" cy="193.78" r="10.47"/><circle class="d" cx="283.17" cy="16.22" r="10.47"/><circle class="d" cx="283.17" cy="75.41" r="10.47"/><circle class="d" cx="283.17" cy="134.59" r="10.47"/><circle class="d" cx="283.17" cy="193.78" r="10.47"/></g><path class="b" d="M299,1V209H1V1H299M300,0H0V210H300V0h0Z"/><circle class="d" cx="326.82" cy="193.78" r="10.47"/><text class="c" transform="translate(345.14 197.41)"><tspan x="0" y="0">Minima Nodes</tspan></text></svg>