<?xml version="1.0" encoding="UTF-8"?><svg id="a" xmlns="http://www.w3.org/2000/svg" viewBox="0 0 469.31 314.82"><defs><style>.b{letter-spacing:-.01em;}.c{letter-spacing:-.02em;}.d{fill:#67b763;}.e,.f{fill:#fff;}.g{fill:#ff9682;}.h{fill:#83afff;}.i{fill:#f4f4f5;}.i,.j{stroke:#fff;stroke-miterlimit:10;}.j{fill:none;}.k{letter-spacing:-.02em;}.l{letter-spacing:0em;}.f{font-family:Manrope-Medium, Manrope;font-size:10px;}.m{letter-spacing:0em;}</style></defs><g><path class="d" d="M391.99,314.32c-6.89,0-12.49-5.6-12.49-12.49s5.6-12.49,12.49-12.49,12.49,5.6,12.49,12.49-5.6,12.49-12.49,12.49Z"/><path class="e" d="M391.99,289.84c6.61,0,11.99,5.38,11.99,11.99s-5.38,11.99-11.99,11.99-11.99-5.38-11.99-11.99,5.38-11.99,11.99-11.99m0-1c-7.18,0-12.99,5.82-12.99,12.99s5.82,12.99,12.99,12.99,12.99-5.82,12.99-12.99-5.82-12.99-12.99-12.99h0Z"/></g><line class="j" x1="24.54" y1="266.37" x2="169.18" y2="15.85"/><line class="j" x1="140.92" y1="266.37" x2="170.41" y2="214.93"/><line class="j" x1="256.97" y1="266.37" x2="140.76" y2="65.07"/><line class="j" x1="200.12" y1="266.37" x2="112.33" y2="114.32"/><line class="j" x1="83.95" y1="266.37" x2="54.24" y2="214.93"/><rect class="i" x="8.69" y="250.53" width="31.7" height="31.7" rx="6.22" ry="6.22"/><g><path class="h" d="M102.7,98.97h19.26c3.16,0,5.72,2.56,5.72,5.72v19.26c0,3.16-2.56,5.72-5.72,5.72h-19.27c-3.15,0-5.72-2.56-5.72-5.72v-19.26c0-3.16,2.56-5.72,5.72-5.72Z"/><path class="e" d="M121.96,99.47c2.88,0,5.22,2.34,5.22,5.22v19.27c0,2.88-2.34,5.22-5.22,5.22h-19.27c-2.88,0-5.22-2.34-5.22-5.22v-19.27c0-2.88,2.34-5.22,5.22-5.22h19.27m0-1h-19.27c-3.43,0-6.22,2.78-6.22,6.22v19.27c0,3.43,2.78,6.22,6.22,6.22h19.27c3.43,0,6.22-2.78,6.22-6.22v-19.27c0-3.43-2.78-6.22-6.22-6.22h0Z"/></g><rect class="i" x="38.39" y="199.08" width="31.7" height="31.7" rx="6.22" ry="6.22"/><rect class="i" x="154.57" y="199.08" width="31.7" height="31.7" rx="6.22" ry="6.22"/><rect class="i" x="124.91" y="49.23" width="31.7" height="31.7" rx="6.22" ry="6.22"/><line class="j" x1="336.01" y1="304.81" x2="169.18" y2="15.85"/><g><path class="g" d="M159.55,.5h19.27c3.15,0,5.72,2.56,5.72,5.72V25.48c0,3.16-2.56,5.72-5.72,5.72h-19.27c-3.15,0-5.72-2.56-5.72-5.72V6.22c0-3.15,2.56-5.72,5.72-5.72Z"/><path class="e" d="M178.81,1c2.88,0,5.22,2.34,5.22,5.22V25.48c0,2.88-2.34,5.22-5.22,5.22h-19.27c-2.88,0-5.22-2.34-5.22-5.22V6.22c0-2.88,2.34-5.22,5.22-5.22h19.27M178.81,0h-19.27c-3.43,0-6.22,2.78-6.22,6.22V25.48c0,3.43,2.78,6.22,6.22,6.22h19.27c3.43,0,6.22-2.78,6.22-6.22V6.22C185.03,2.78,182.24,0,178.81,0h0Z"/></g><g><path class="g" d="M384.09,138.13h15.79c2.54,0,4.6,2.06,4.6,4.6v15.79c0,2.54-2.06,4.6-4.6,4.6h-15.8c-2.54,0-4.6-2.06-4.6-4.6v-15.79c0-2.54,2.06-4.6,4.6-4.6Z"/><path class="e" d="M399.89,138.63c2.26,0,4.1,1.84,4.1,4.1v15.79c0,2.26-1.84,4.1-4.1,4.1h-15.79c-2.26,0-4.1-1.84-4.1-4.1v-15.79c0-2.26,1.84-4.1,4.1-4.1h15.79m0-1h-15.79c-2.81,0-5.1,2.28-5.1,5.1v15.79c0,2.81,2.28,5.1,5.1,5.1h15.79c2.81,0,5.1-2.28,5.1-5.1v-15.79c0-2.81-2.28-5.1-5.1-5.1h0Z"/></g><g><path class="h" d="M384.09,175.93h15.79c2.54,0,4.6,2.06,4.6,4.6v15.8c0,2.54-2.06,4.6-4.6,4.6h-15.79c-2.54,0-4.6-2.06-4.6-4.6v-15.79c0-2.54,2.06-4.6,4.6-4.6Z"/><path class="e" d="M399.89,176.43c2.26,0,4.1,1.84,4.1,4.1v15.79c0,2.26-1.84,4.1-4.1,4.1h-15.79c-2.26,0-4.1-1.84-4.1-4.1v-15.79c0-2.26,1.84-4.1,4.1-4.1h15.79m0-1h-15.79c-2.81,0-5.1,2.28-5.1,5.1v15.79c0,2.81,2.28,5.1,5.1,5.1h15.79c2.81,0,5.1-2.28,5.1-5.1v-15.79c0-2.81-2.28-5.1-5.1-5.1h0Z"/></g><g><path class="h" d="M391.99,238.72c-6.89,0-12.49-5.6-12.49-12.49s5.6-12.49,12.49-12.49,12.49,5.6,12.49,12.49-5.6,12.49-12.49,12.49Z"/><path class="e" d="M391.99,214.23c6.61,0,11.99,5.38,11.99,11.99s-5.38,11.99-11.99,11.99-11.99-5.38-11.99-11.99,5.38-11.99,11.99-11.99m0-1c-7.18,0-12.99,5.82-12.99,12.99s5.82,12.99,12.99,12.99,12.99-5.82,12.99-12.99-5.82-12.99-12.99-12.99h0Z"/></g><rect class="i" x="379" y="251.03" width="25.99" height="25.99" rx="5.1" ry="5.1"/><line class="j" x1="24.54" y1="266.37" x2="10.01" y2="304.81"/><line class="j" x1="24.54" y1="266.37" x2="39.06" y2="304.81"/><line class="j" x1="83.95" y1="266.37" x2="69.42" y2="304.81"/><line class="j" x1="83.95" y1="266.37" x2="98.47" y2="304.81"/><line class="j" x1="140.92" y1="266.37" x2="126.4" y2="304.81"/><line class="j" x1="140.92" y1="266.37" x2="155.45" y2="304.81"/><line class="j" x1="200.12" y1="266.37" x2="185.59" y2="304.81"/><line class="j" x1="198.86" y1="265.87" x2="214.64" y2="304.81"/><line class="j" x1="256.97" y1="266.37" x2="242.44" y2="304.81"/><line class="j" x1="256.97" y1="266.37" x2="271.5" y2="304.81"/><g><circle class="d" cx="10.01" cy="304.81" r="9.51"/><path class="e" d="M10.01,295.8c4.97,0,9.01,4.04,9.01,9.01s-4.04,9.01-9.01,9.01-9.01-4.04-9.01-9.01,4.04-9.01,9.01-9.01m0-1C4.48,294.8,0,299.28,0,304.81s4.48,10.01,10.01,10.01,10.01-4.48,10.01-10.01-4.48-10.01-10.01-10.01h0Z"/></g><g><circle class="d" cx="39.06" cy="304.81" r="9.51"/><path class="e" d="M39.06,295.8c4.97,0,9.01,4.04,9.01,9.01s-4.04,9.01-9.01,9.01-9.01-4.04-9.01-9.01,4.04-9.01,9.01-9.01m0-1c-5.53,0-10.01,4.48-10.01,10.01s4.48,10.01,10.01,10.01,10.01-4.48,10.01-10.01-4.48-10.01-10.01-10.01h0Z"/></g><g><circle class="d" cx="69.42" cy="304.81" r="9.51"/><path class="e" d="M69.42,295.8c4.97,0,9.01,4.04,9.01,9.01s-4.04,9.01-9.01,9.01-9.01-4.04-9.01-9.01,4.04-9.01,9.01-9.01m0-1c-5.53,0-10.01,4.48-10.01,10.01s4.48,10.01,10.01,10.01,10.01-4.48,10.01-10.01-4.48-10.01-10.01-10.01h0Z"/></g><g><path class="d" d="M98.47,314.32c-5.25,0-9.51-4.27-9.51-9.51s4.27-9.51,9.51-9.51,9.51,4.27,9.51,9.51-4.27,9.51-9.51,9.51Z"/><path class="e" d="M98.47,295.8c4.97,0,9.01,4.04,9.01,9.01s-4.04,9.01-9.01,9.01-9.01-4.04-9.01-9.01,4.04-9.01,9.01-9.01m0-1c-5.53,0-10.01,4.48-10.01,10.01s4.48,10.01,10.01,10.01,10.01-4.48,10.01-10.01-4.48-10.01-10.01-10.01h0Z"/></g><g><circle class="d" cx="126.4" cy="304.81" r="9.51"/><path class="e" d="M126.4,295.8c4.97,0,9.01,4.04,9.01,9.01s-4.04,9.01-9.01,9.01-9.01-4.04-9.01-9.01,4.04-9.01,9.01-9.01m0-1c-5.53,0-10.01,4.48-10.01,10.01s4.48,10.01,10.01,10.01,10.01-4.48,10.01-10.01-4.48-10.01-10.01-10.01h0Z"/></g><g><circle class="d" cx="155.45" cy="304.81" r="9.51"/><path class="e" d="M155.45,295.8c4.97,0,9.01,4.04,9.01,9.01s-4.04,9.01-9.01,9.01-9.01-4.04-9.01-9.01,4.04-9.01,9.01-9.01m0-1c-5.53,0-10.01,4.48-10.01,10.01s4.48,10.01,10.01,10.01,10.01-4.48,10.01-10.01-4.48-10.01-10.01-10.01h0Z"/></g><g><circle class="d" cx="185.59" cy="304.81" r="9.51"/><path class="e" d="M185.59,295.8c4.97,0,9.01,4.04,9.01,9.01s-4.04,9.01-9.01,9.01-9.01-4.04-9.01-9.01,4.04-9.01,9.01-9.01m0-1c-5.53,0-10.01,4.48-10.01,10.01s4.48,10.01,10.01,10.01,10.01-4.48,10.01-10.01-4.48-10.01-10.01-10.01h0Z"/></g><g><circle class="d" cx="214.65" cy="304.81" r="9.51"/><path class="e" d="M214.64,295.8c4.97,0,9.01,4.04,9.01,9.01s-4.04,9.01-9.01,9.01-9.01-4.04-9.01-9.01,4.04-9.01,9.01-9.01m0-1c-5.53,0-10.01,4.48-10.01,10.01s4.48,10.01,10.01,10.01,10.01-4.48,10.01-10.01-4.48-10.01-10.01-10.01h0Z"/></g><g><circle class="d" cx="242.44" cy="304.81" r="9.51"/><path class="e" d="M242.44,295.8c4.97,0,9.01,4.04,9.01,9.01s-4.04,9.01-9.01,9.01-9.01-4.04-9.01-9.01,4.04-9.01,9.01-9.01m0-1c-5.53,0-10.01,4.48-10.01,10.01s4.48,10.01,10.01,10.01,10.01-4.48,10.01-10.01-4.48-10.01-10.01-10.01h0Z"/></g><g><circle class="d" cx="271.5" cy="304.81" r="9.51"/><path class="e" d="M271.5,295.8c4.97,0,9.01,4.04,9.01,9.01s-4.04,9.01-9.01,9.01-9.01-4.04-9.01-9.01,4.04-9.01,9.01-9.01m0-1c-5.53,0-10.01,4.48-10.01,10.01s4.48,10.01,10.01,10.01,10.01-4.48,10.01-10.01-4.48-10.01-10.01-10.01h0Z"/></g><g><circle class="h" cx="336.01" cy="304.81" r="9.51"/><path class="e" d="M336.01,295.8c4.97,0,9.01,4.04,9.01,9.01s-4.04,9.01-9.01,9.01-9.01-4.04-9.01-9.01,4.04-9.01,9.01-9.01m0-1c-5.53,0-10.01,4.48-10.01,10.01s4.48,10.01,10.01,10.01,10.01-4.48,10.01-10.01-4.48-10.01-10.01-10.01h0Z"/></g><rect class="i" x="8.69" y="250.53" width="31.7" height="31.7" rx="6.22" ry="6.22" transform="translate(49.08 532.75) rotate(-180)"/><rect class="i" x="68.1" y="250.53" width="31.7" height="31.7" rx="6.22" ry="6.22"/><rect class="i" x="125.08" y="250.53" width="31.7" height="31.7" rx="6.22" ry="6.22"/><rect class="i" x="184.27" y="250.53" width="31.7" height="31.7" rx="6.22" ry="6.22"/><g><rect class="h" x="241.62" y="251.03" width="30.7" height="30.7" rx="5.72" ry="5.72"/><path class="e" d="M266.6,251.53c2.88,0,5.22,2.34,5.22,5.22v19.27c0,2.88-2.34,5.22-5.22,5.22h-19.27c-2.88,0-5.22-2.34-5.22-5.22v-19.27c0-2.88,2.34-5.22,5.22-5.22h19.27m0-1h-19.27c-3.43,0-6.22,2.78-6.22,6.22v19.27c0,3.43,2.78,6.22,6.22,6.22h19.27c3.43,0,6.22-2.78,6.22-6.22v-19.27c0-3.43-2.78-6.22-6.22-6.22h0Z"/></g><text class="f" transform="translate(415.26 305.45)"><tspan x="0" y="0">L</tspan><tspan class="l" x="5.18" y="0">e</tspan><tspan x="10.99" y="0">af Nodes</tspan></text><text class="f" transform="translate(415.26 267.64)"><tspan class="c" x="0" y="0">P</tspan><tspan x="5.96" y="0">a</tspan><tspan class="b" x="11.58" y="0">r</tspan><tspan class="k" x="15.21" y="0">e</tspan><tspan x="20.97" y="0">nts</tspan></text><text class="f" transform="translate(415.26 229.84)"><tspan class="m" x="0" y="0">P</tspan><tspan class="b" x="6.11" y="0">e</tspan><tspan x="11.91" y="0">a</tspan><tspan class="l" x="17.54" y="0">k</tspan><tspan x="22.54" y="0">s</tspan></text><text class="f" transform="translate(415.26 192.04)"><tspan class="m" x="0" y="0">P</tspan><tspan class="b" x="6.11" y="0">e</tspan><tspan x="11.91" y="0">a</tspan><tspan class="l" x="17.54" y="0">k</tspan><tspan x="22.54" y="0">s</tspan></text><text class="f" transform="translate(415.26 154.24)"><tspan x="0" y="0">Root</tspan></text></svg>