<?xml version="1.0" encoding="UTF-8"?><svg id="a" xmlns="http://www.w3.org/2000/svg" viewBox="0 0 469.31 242.94"><defs><style>.b{letter-spacing:-.01em;}.c{letter-spacing:-.02em;}.d{letter-spacing:-.02em;}.e{letter-spacing:-.03em;}.f,.g,.h{fill:#363a3f;}.i{fill:#5a94ff;}.j{letter-spacing:-.02em;}.k{letter-spacing:-.01em;}.g{font-family:Manrope-Bold, Manrope;font-size:15.64px;}.l{stroke-dasharray:0 0 3.75 3.75;}.l,.m,.n,.o,.p{fill:none;}.l,.n,.o{stroke:#ff7358;stroke-width:1.19px;}.m{stroke:#363a3f;stroke-miterlimit:10;}.o{stroke-dasharray:0 0 3.56 3.56;}.q{letter-spacing:-.02em;}.r{letter-spacing:0em;}.h{font-family:Manrope-Medium, Manrope;font-size:10px;}.p{stroke:#5a94ff;}.s{letter-spacing:0em;}</style></defs><g><line class="p" x1="340.96" y1="20.78" x2="309.85" y2="20.78"/><polygon class="i" points="310.87 17.29 304.82 20.78 310.87 24.27 310.87 17.29"/></g><g><line class="p" x1="273.33" y1="20.78" x2="242.22" y2="20.78"/><polygon class="i" points="243.24 17.29 237.2 20.78 243.24 24.27 243.24 17.29"/></g><g><line class="p" x1="273.33" y1="87.73" x2="242.22" y2="87.73"/><polygon class="i" points="243.24 84.24 237.2 87.73 243.24 91.22 243.24 84.24"/></g><g><line class="p" x1="205.7" y1="87.73" x2="174.59" y2="87.73"/><polygon class="i" points="175.61 84.24 169.57 87.73 175.61 91.22 175.61 84.24"/></g><g><line class="p" x1="205.7" y1="54.1" x2="173.63" y2="77.37"/><polygon class="i" points="172.41 73.94 169.57 80.32 176.51 79.59 172.41 73.94"/></g><g><line class="p" x1="70.45" y1="87.73" x2="38.38" y2="110.99"/><polygon class="i" points="37.16 107.57 34.32 113.94 41.26 113.22 37.16 107.57"/></g><g><line class="p" x1="205.7" y1="121.35" x2="173.63" y2="98.09"/><polygon class="i" points="176.51 95.86 169.57 95.14 172.41 101.51 176.51 95.86"/></g><g><line class="p" x1="138.08" y1="87.73" x2="106.97" y2="87.73"/><polygon class="i" points="107.99 84.24 101.94 87.73 107.99 91.22 107.99 84.24"/></g><g><line class="p" x1="138.08" y1="20.78" x2="104.46" y2="78.88"/><polygon class="i" points="101.95 76.25 101.94 83.23 107.99 79.74 101.95 76.25"/></g><g><line class="p" x1="138.08" y1="154.9" x2="104.46" y2="96.8"/><polygon class="i" points="107.99 95.93 101.94 92.45 101.95 99.43 107.99 95.93"/></g><g><line class="p" x1="70.45" y1="198.9" x2="36.83" y2="140.8"/><polygon class="i" points="40.36 139.94 34.32 136.45 34.32 143.43 40.36 139.94"/></g><g><line class="p" x1="205.7" y1="20.78" x2="174.59" y2="20.78"/><polygon class="i" points="175.61 17.29 169.57 20.78 175.61 24.27 175.61 17.29"/></g><g><line class="p" x1="340.96" y1="198.9" x2="309.85" y2="198.9"/><polygon class="i" points="310.87 195.41 304.82 198.9 310.87 202.39 310.87 195.41"/></g><g><line class="p" x1="408.58" y1="198.9" x2="377.47" y2="198.9"/><polygon class="i" points="378.49 195.41 372.45 198.9 378.49 202.39 378.49 195.41"/></g><g><line class="p" x1="273.33" y1="198.9" x2="242.22" y2="198.9"/><polygon class="i" points="243.24 195.41 237.2 198.9 243.24 202.39 243.24 195.41"/></g><g><line class="p" x1="205.7" y1="198.9" x2="174.59" y2="198.9"/><polygon class="i" points="175.61 195.41 169.57 198.9 175.61 202.39 175.61 195.41"/></g><g><line class="p" x1="205.7" y1="154.9" x2="174.59" y2="154.9"/><polygon class="i" points="175.61 151.41 169.57 154.9 175.61 158.39 175.61 151.41"/></g><g><line class="p" x1="138.08" y1="198.9" x2="106.97" y2="198.9"/><polygon class="i" points="107.99 195.41 101.94 198.9 107.99 202.39 107.99 195.41"/></g><g><path class="f" d="M379.1,11.93V4.73h.81l2.72,5.74,2.7-5.74h.82v7.2h-.84V6.68l-2.45,5.25h-.47l-2.45-5.25v5.25h-.84Z"/><path class="f" d="M389.09,12.08c-.4,0-.74-.07-1.01-.22s-.48-.34-.62-.59-.21-.51-.21-.8,.05-.53,.16-.74c.11-.21,.26-.38,.46-.52,.2-.14,.43-.25,.71-.33,.26-.07,.54-.13,.86-.18s.64-.1,.97-.14c.33-.04,.63-.08,.92-.12l-.32,.19c0-.48-.09-.83-.29-1.07-.2-.23-.55-.34-1.04-.34-.33,0-.61,.07-.86,.22-.25,.15-.42,.39-.52,.72l-.85-.25c.13-.47,.38-.84,.76-1.11,.37-.27,.86-.41,1.47-.41,.49,0,.91,.09,1.26,.26,.35,.17,.6,.44,.76,.79,.08,.17,.12,.35,.15,.54,.02,.19,.03,.4,.03,.61v3.34h-.79v-1.29l.18,.12c-.2,.44-.49,.77-.85,.99-.37,.22-.81,.33-1.33,.33Zm.13-.75c.32,0,.6-.06,.83-.17,.24-.12,.42-.27,.57-.46,.14-.19,.24-.39,.28-.62,.05-.17,.08-.35,.08-.56s0-.36,0-.47l.31,.13c-.29,.04-.58,.08-.86,.12-.28,.04-.54,.08-.79,.12-.25,.04-.47,.09-.67,.15-.15,.05-.28,.11-.41,.18-.13,.07-.23,.17-.31,.28s-.12,.26-.12,.43c0,.15,.04,.29,.11,.42,.08,.13,.19,.24,.35,.33,.16,.08,.37,.12,.62,.12Z"/><path class="f" d="M393.28,5.57v-.92h.89v.92h-.89Zm0,6.36V6.53h.89v5.4h-.89Z"/><path class="f" d="M395.66,11.93V6.53h.8v1.45h.1v3.96h-.9Zm3.85,0v-2.71c0-.26-.02-.5-.07-.74-.04-.24-.12-.45-.24-.64-.11-.19-.26-.34-.45-.45-.19-.11-.43-.17-.71-.17-.22,0-.43,.04-.61,.11-.18,.07-.34,.19-.47,.34s-.23,.35-.3,.58c-.07,.23-.11,.5-.11,.82l-.58-.18c0-.52,.09-.97,.28-1.35,.19-.38,.45-.66,.79-.87,.34-.2,.74-.3,1.21-.3,.35,0,.65,.05,.9,.17,.25,.11,.45,.26,.61,.44,.16,.18,.29,.38,.39,.61,.09,.22,.16,.45,.2,.68s.06,.45,.06,.66v2.99h-.9Z"/><path class="f" d="M405.99,12.08c-.55,0-1.01-.12-1.39-.37-.38-.25-.67-.58-.87-1.01-.2-.43-.3-.92-.31-1.47,0-.56,.11-1.06,.32-1.49s.5-.76,.88-1c.38-.24,.85-.36,1.39-.36,.57,0,1.06,.14,1.47,.42,.41,.28,.69,.66,.83,1.15l-.88,.27c-.11-.31-.3-.56-.55-.73-.25-.17-.55-.26-.88-.26-.37,0-.67,.09-.92,.26-.24,.17-.42,.41-.53,.71-.12,.3-.18,.65-.18,1.04,0,.6,.15,1.08,.42,1.45,.27,.37,.68,.55,1.21,.55,.35,0,.65-.08,.88-.24,.23-.16,.41-.4,.53-.7l.9,.23c-.19,.5-.48,.89-.88,1.16s-.88,.4-1.44,.4Z"/><path class="f" d="M409.32,11.93V4.73h.8v3.98h.1v3.22h-.9Zm3.85,0v-2.71c0-.26-.02-.5-.07-.74-.04-.24-.12-.45-.24-.64-.11-.19-.26-.34-.45-.45-.19-.11-.43-.17-.71-.17-.22,0-.43,.04-.61,.11-.18,.07-.34,.19-.47,.34s-.23,.35-.3,.58c-.07,.23-.11,.5-.11,.82l-.58-.18c0-.52,.09-.97,.28-1.35,.19-.38,.45-.66,.79-.87,.34-.2,.74-.3,1.21-.3,.35,0,.65,.05,.9,.17,.25,.11,.45,.26,.61,.44,.16,.18,.29,.38,.39,.61,.09,.22,.16,.45,.2,.68s.06,.45,.06,.66v2.99h-.9Z"/><path class="f" d="M416.9,12.08c-.4,0-.74-.07-1.01-.22s-.48-.34-.62-.59-.21-.51-.21-.8,.05-.53,.16-.74c.11-.21,.26-.38,.46-.52,.2-.14,.43-.25,.71-.33,.26-.07,.54-.13,.86-.18s.64-.1,.97-.14c.33-.04,.63-.08,.92-.12l-.32,.19c0-.48-.09-.83-.29-1.07-.2-.23-.55-.34-1.04-.34-.33,0-.61,.07-.86,.22-.25,.15-.42,.39-.52,.72l-.85-.25c.13-.47,.38-.84,.76-1.11,.37-.27,.86-.41,1.47-.41,.49,0,.91,.09,1.26,.26,.35,.17,.6,.44,.76,.79,.08,.17,.12,.35,.15,.54,.02,.19,.03,.4,.03,.61v3.34h-.79v-1.29l.18,.12c-.2,.44-.49,.77-.85,.99-.37,.22-.81,.33-1.33,.33Zm.13-.75c.32,0,.6-.06,.83-.17,.24-.12,.42-.27,.57-.46,.14-.19,.24-.39,.28-.62,.05-.17,.08-.35,.08-.56s0-.36,0-.47l.31,.13c-.29,.04-.58,.08-.86,.12-.28,.04-.54,.08-.79,.12-.25,.04-.47,.09-.67,.15-.15,.05-.28,.11-.41,.18-.13,.07-.23,.17-.31,.28s-.12,.26-.12,.43c0,.15,.04,.29,.11,.42,.08,.13,.19,.24,.35,.33,.16,.08,.37,.12,.62,.12Z"/><path class="f" d="M421.09,5.57v-.92h.89v.92h-.89Zm0,6.36V6.53h.89v5.4h-.89Z"/><path class="f" d="M423.48,11.93V6.53h.8v1.45h.1v3.96h-.9Zm3.85,0v-2.71c0-.26-.02-.5-.07-.74-.04-.24-.12-.45-.24-.64-.11-.19-.26-.34-.45-.45-.19-.11-.43-.17-.71-.17-.22,0-.43,.04-.61,.11-.18,.07-.34,.19-.47,.34s-.23,.35-.3,.58c-.07,.23-.11,.5-.11,.82l-.58-.18c0-.52,.09-.97,.28-1.35,.19-.38,.45-.66,.79-.87,.34-.2,.74-.3,1.21-.3,.35,0,.65,.05,.9,.17,.25,.11,.45,.26,.61,.44,.16,.18,.29,.38,.39,.61,.09,.22,.16,.45,.2,.68s.06,.45,.06,.66v2.99h-.9Z"/><path class="f" d="M380.63,24.08c-.4,0-.74-.07-1.01-.22s-.48-.34-.62-.59-.21-.51-.21-.8,.05-.53,.16-.74c.11-.21,.26-.38,.46-.52,.2-.14,.43-.25,.71-.33,.26-.07,.54-.13,.86-.18s.64-.1,.97-.14c.33-.04,.63-.08,.92-.12l-.32,.19c0-.48-.09-.83-.29-1.07-.2-.23-.55-.34-1.04-.34-.33,0-.61,.07-.86,.22-.25,.15-.42,.39-.52,.72l-.85-.25c.13-.47,.38-.84,.76-1.11,.37-.27,.86-.41,1.47-.41,.49,0,.91,.09,1.26,.26,.35,.17,.6,.44,.76,.79,.08,.17,.12,.35,.15,.54,.02,.19,.03,.4,.03,.61v3.34h-.79v-1.29l.18,.12c-.2,.44-.49,.77-.85,.99-.37,.22-.81,.33-1.33,.33Zm.13-.75c.32,0,.6-.06,.83-.17,.24-.12,.42-.27,.57-.46,.14-.19,.24-.39,.28-.62,.05-.17,.08-.35,.08-.56s0-.36,0-.47l.31,.13c-.29,.04-.58,.08-.86,.12-.28,.04-.54,.08-.79,.12-.25,.04-.47,.09-.67,.15-.15,.05-.28,.11-.41,.18-.13,.07-.23,.17-.31,.28s-.12,.26-.12,.43c0,.15,.04,.29,.11,.42,.08,.13,.19,.24,.35,.33,.16,.08,.37,.12,.62,.12Z"/><path class="f" d="M387,24.08c-.55,0-1.01-.12-1.39-.37-.38-.25-.67-.58-.87-1.01-.2-.43-.3-.92-.31-1.47,0-.56,.11-1.06,.32-1.49s.5-.76,.88-1c.38-.24,.85-.36,1.39-.36,.57,0,1.06,.14,1.47,.42,.41,.28,.69,.66,.83,1.15l-.88,.27c-.11-.31-.3-.56-.55-.73-.25-.17-.55-.26-.88-.26-.37,0-.67,.09-.92,.26-.24,.17-.42,.41-.53,.71-.12,.3-.18,.65-.18,1.04,0,.6,.15,1.08,.42,1.45,.27,.37,.68,.55,1.21,.55,.35,0,.65-.08,.88-.24,.23-.16,.41-.4,.53-.7l.9,.23c-.19,.5-.48,.89-.88,1.16s-.88,.4-1.44,.4Z"/><path class="f" d="M392.46,24.08c-.55,0-1.01-.12-1.39-.37-.38-.25-.67-.58-.87-1.01-.2-.43-.3-.92-.31-1.47,0-.56,.11-1.06,.32-1.49s.5-.76,.88-1c.38-.24,.85-.36,1.39-.36,.57,0,1.06,.14,1.47,.42,.41,.28,.69,.66,.83,1.15l-.88,.27c-.11-.31-.3-.56-.55-.73-.25-.17-.55-.26-.88-.26-.37,0-.67,.09-.92,.26-.24,.17-.42,.41-.53,.71-.12,.3-.18,.65-.18,1.04,0,.6,.15,1.08,.42,1.45,.27,.37,.68,.55,1.21,.55,.35,0,.65-.08,.88-.24,.23-.16,.41-.4,.53-.7l.9,.23c-.19,.5-.48,.89-.88,1.16s-.88,.4-1.44,.4Z"/><path class="f" d="M397.94,24.08c-.54,0-1-.12-1.39-.37-.39-.24-.69-.58-.9-1.01-.21-.43-.31-.92-.31-1.48s.11-1.06,.32-1.49c.21-.43,.52-.76,.91-1s.85-.36,1.38-.36,1,.12,1.39,.36c.39,.24,.69,.58,.9,1,.21,.43,.31,.92,.31,1.48s-.11,1.06-.32,1.49c-.21,.43-.51,.76-.9,1-.39,.24-.85,.36-1.39,.36Zm0-.85c.56,0,.98-.19,1.25-.56s.41-.86,.41-1.45-.14-1.1-.42-1.46c-.28-.36-.69-.54-1.25-.54-.38,0-.69,.08-.93,.25-.24,.17-.43,.41-.54,.71-.12,.3-.18,.65-.18,1.04,0,.61,.14,1.09,.42,1.46,.28,.37,.69,.55,1.24,.55Z"/><path class="f" d="M401.65,23.93v-5.4h.79v1.31l-.13-.17c.06-.17,.15-.32,.25-.46,.1-.14,.22-.26,.34-.35,.14-.11,.3-.2,.47-.26,.18-.06,.36-.1,.54-.11,.18-.01,.36,0,.52,.04v.83c-.19-.05-.39-.06-.62-.04-.22,.02-.43,.11-.62,.25-.17,.12-.31,.27-.4,.45s-.16,.37-.2,.57c-.04,.21-.06,.42-.06,.63v2.71h-.89Z"/><path class="f" d="M407.4,24.08c-.5,0-.94-.13-1.29-.38-.36-.25-.64-.59-.83-1.02s-.29-.92-.29-1.46,.1-1.03,.29-1.46,.47-.77,.83-1.02c.36-.25,.79-.37,1.29-.37s.94,.12,1.28,.37c.35,.25,.61,.58,.79,1.01,.18,.43,.27,.92,.27,1.46s-.09,1.02-.27,1.45c-.18,.43-.44,.77-.79,1.03s-.77,.38-1.28,.38Zm.11-.82c.36,0,.66-.09,.9-.26s.41-.42,.52-.72c.11-.31,.17-.66,.17-1.05s-.06-.75-.17-1.06c-.11-.3-.28-.54-.51-.71-.23-.17-.52-.26-.88-.26s-.67,.09-.91,.27-.42,.42-.53,.73-.17,.65-.17,1.03,.06,.73,.17,1.04c.12,.31,.29,.55,.53,.73,.23,.18,.53,.27,.88,.27Zm1.58,.67v-3.97h-.1v-3.23h.89v7.2h-.79Z"/><path class="f" d="M411.39,17.57v-.92h.89v.92h-.89Zm0,6.36v-5.4h.89v5.4h-.89Z"/><path class="f" d="M413.77,23.93v-5.4h.8v1.45h.1v3.96h-.9Zm3.85,0v-2.71c0-.26-.02-.5-.07-.74-.04-.24-.12-.45-.24-.64-.11-.19-.26-.34-.45-.45-.19-.11-.43-.17-.71-.17-.22,0-.43,.04-.61,.11-.18,.07-.34,.19-.47,.34s-.23,.35-.3,.58c-.07,.23-.11,.5-.11,.82l-.58-.18c0-.52,.09-.97,.28-1.35,.19-.38,.45-.66,.79-.87,.34-.2,.74-.3,1.21-.3,.35,0,.65,.05,.9,.17,.25,.11,.45,.26,.61,.44,.16,.18,.29,.38,.39,.61,.09,.22,.16,.45,.2,.68s.06,.45,.06,.66v2.99h-.9Z"/><path class="f" d="M421.89,24.08c-.5,0-.94-.13-1.29-.38-.36-.25-.64-.59-.83-1.02s-.29-.92-.29-1.46,.1-1.03,.29-1.46,.47-.77,.83-1.02c.36-.25,.79-.37,1.29-.37s.94,.12,1.28,.37c.35,.25,.61,.58,.79,1.01,.18,.43,.27,.92,.27,1.46s-.09,1.02-.27,1.45c-.18,.43-.44,.77-.79,1.03s-.77,.38-1.28,.38Zm.11-.82c.36,0,.66-.09,.9-.26s.41-.42,.52-.72c.11-.31,.17-.66,.17-1.05s-.06-.75-.17-1.06c-.11-.3-.28-.54-.51-.71-.23-.17-.52-.26-.88-.26s-.67,.09-.91,.27-.42,.42-.53,.73-.17,.65-.17,1.03,.06,.73,.17,1.04c.12,.31,.29,.55,.53,.73,.23,.18,.53,.27,.88,.27Zm1.58,.67v-3.97h-.1v-3.23h.89v7.2h-.79Z"/><path class="f" d="M425.88,17.57v-.92h.89v.92h-.89Zm0,6.36v-5.4h.89v5.4h-.89Z"/><path class="f" d="M428.26,23.93v-5.4h.8v1.45h.1v3.96h-.9Zm3.85,0v-2.71c0-.26-.02-.5-.07-.74-.04-.24-.12-.45-.24-.64-.11-.19-.26-.34-.45-.45-.19-.11-.43-.17-.71-.17-.22,0-.43,.04-.61,.11-.18,.07-.34,.19-.47,.34s-.23,.35-.3,.58c-.07,.23-.11,.5-.11,.82l-.58-.18c0-.52,.09-.97,.28-1.35,.19-.38,.45-.66,.79-.87,.34-.2,.74-.3,1.21-.3,.35,0,.65,.05,.9,.17,.25,.11,.45,.26,.61,.44,.16,.18,.29,.38,.39,.61,.09,.22,.16,.45,.2,.68s.06,.45,.06,.66v2.99h-.9Z"/><path class="f" d="M436.43,24.08c-.5,0-.94-.13-1.29-.38-.36-.25-.64-.59-.83-1.02s-.29-.92-.29-1.46,.1-1.03,.29-1.46,.47-.77,.83-1.02c.36-.25,.79-.37,1.29-.37s.94,.12,1.28,.37c.35,.25,.61,.58,.79,1.01,.18,.43,.27,.92,.27,1.46s-.09,1.02-.27,1.45c-.18,.43-.44,.77-.79,1.03s-.77,.38-1.28,.38Zm.06,2.4c-.28,0-.56-.04-.83-.13-.27-.09-.52-.22-.74-.39s-.41-.4-.56-.66l.82-.43c.13,.26,.32,.46,.57,.58s.5,.18,.76,.18c.34,0,.63-.06,.86-.19s.39-.31,.5-.56c.11-.25,.16-.55,.16-.92v-1.48h.1v-3.95h.79v5.44c0,.15,0,.29-.01,.42,0,.14-.03,.27-.05,.41-.07,.38-.21,.7-.42,.95-.21,.25-.47,.43-.8,.55-.33,.12-.7,.18-1.13,.18Zm.04-3.21c.36,0,.66-.09,.9-.26s.41-.42,.52-.72c.11-.31,.17-.66,.17-1.05s-.06-.75-.17-1.06c-.11-.3-.28-.54-.51-.71-.23-.17-.52-.26-.88-.26s-.67,.09-.91,.27-.42,.42-.53,.73-.17,.65-.17,1.03,.06,.73,.17,1.04c.12,.31,.29,.55,.53,.73,.23,.18,.53,.27,.88,.27Z"/><path class="f" d="M378.5,31.26v-.74h3.62v.74h-3.62Zm3.62,4.67c-.32,.06-.64,.09-.95,.08s-.59-.07-.83-.19c-.24-.12-.43-.29-.55-.54-.11-.21-.16-.43-.17-.65,0-.22-.01-.47-.01-.74v-4.86h.89v4.82c0,.22,0,.41,0,.57,0,.16,.04,.29,.1,.4,.12,.21,.31,.34,.57,.38,.26,.04,.58,.03,.95-.03v.76Z"/><path class="f" d="M385.29,36.08c-.54,0-1-.12-1.39-.37-.39-.24-.69-.58-.9-1.01-.21-.43-.31-.92-.31-1.48s.11-1.06,.32-1.49c.21-.43,.52-.76,.91-1s.85-.36,1.38-.36,1,.12,1.39,.36c.39,.24,.69,.58,.9,1,.21,.43,.31,.92,.31,1.48s-.11,1.06-.32,1.49c-.21,.43-.51,.76-.9,1-.39,.24-.85,.36-1.39,.36Zm0-.85c.56,0,.98-.19,1.25-.56s.41-.86,.41-1.45-.14-1.1-.42-1.46c-.28-.36-.69-.54-1.25-.54-.38,0-.69,.08-.93,.25-.24,.17-.43,.41-.54,.71-.12,.3-.18,.65-.18,1.04,0,.61,.14,1.09,.42,1.46,.28,.37,.69,.55,1.24,.55Z"/><path class="f" d="M391.24,30.8c-.17-.18-.26-.44-.26-.79v-1.28h.98v1.13h-.51c-.01,.13,0,.25,0,.37,.02,.11,.07,.2,.13,.26,.07,.06,.18,.09,.32,.08l.05,.42c-.31,.06-.55,0-.72-.18Z"/><path class="f" d="M393.52,35.93v-7.35h.89v7.35h-.89Z"/><path class="f" d="M398.21,36.08c-.54,0-1-.12-1.39-.37-.39-.24-.69-.58-.9-1.01-.21-.43-.31-.92-.31-1.48s.11-1.06,.32-1.49c.21-.43,.52-.76,.91-1s.85-.36,1.38-.36,1,.12,1.39,.36c.39,.24,.69,.58,.9,1,.21,.43,.31,.92,.31,1.48s-.11,1.06-.32,1.49c-.21,.43-.51,.76-.9,1-.39,.24-.85,.36-1.39,.36Zm0-.85c.56,0,.98-.19,1.25-.56s.41-.86,.41-1.45-.14-1.1-.42-1.46c-.28-.36-.69-.54-1.25-.54-.38,0-.69,.08-.93,.25-.24,.17-.43,.41-.54,.71-.12,.3-.18,.65-.18,1.04,0,.61,.14,1.09,.42,1.46,.28,.37,.69,.55,1.24,.55Z"/><path class="f" d="M401.91,35.93v-5.4h.8v1.45h.1v3.96h-.9Zm3.85,0v-2.71c0-.26-.02-.5-.07-.74-.04-.24-.12-.45-.24-.64-.11-.19-.26-.34-.45-.45-.19-.11-.43-.17-.71-.17-.22,0-.43,.04-.61,.11-.18,.07-.34,.19-.47,.34s-.23,.35-.3,.58c-.07,.23-.11,.5-.11,.82l-.58-.18c0-.52,.09-.97,.28-1.35,.19-.38,.45-.66,.79-.87,.34-.2,.74-.3,1.21-.3,.35,0,.65,.05,.9,.17,.25,.11,.45,.26,.61,.44,.16,.18,.29,.38,.39,.61,.09,.22,.16,.45,.2,.68s.06,.45,.06,.66v2.99h-.9Z"/><path class="f" d="M410.08,36.08c-.5,0-.94-.13-1.29-.38-.36-.25-.64-.59-.83-1.02s-.29-.92-.29-1.46,.1-1.03,.29-1.46,.47-.77,.83-1.02c.36-.25,.79-.37,1.29-.37s.94,.12,1.28,.37c.35,.25,.61,.58,.79,1.01,.18,.43,.27,.92,.27,1.46s-.09,1.02-.27,1.45c-.18,.43-.44,.77-.79,1.03s-.77,.38-1.28,.38Zm.06,2.4c-.28,0-.56-.04-.83-.13-.27-.09-.52-.22-.74-.39s-.41-.4-.56-.66l.82-.43c.13,.26,.32,.46,.57,.58s.5,.18,.76,.18c.34,0,.63-.06,.86-.19s.39-.31,.5-.56c.11-.25,.16-.55,.16-.92v-1.48h.1v-3.95h.79v5.44c0,.15,0,.29-.01,.42,0,.14-.03,.27-.05,.41-.07,.38-.21,.7-.42,.95-.21,.25-.47,.43-.8,.55-.33,.12-.7,.18-1.13,.18Zm.04-3.21c.36,0,.66-.09,.9-.26s.41-.42,.52-.72c.11-.31,.17-.66,.17-1.05s-.06-.75-.17-1.06c-.11-.3-.28-.54-.51-.71-.23-.17-.52-.26-.88-.26s-.67,.09-.91,.27-.42,.42-.53,.73-.17,.65-.17,1.03,.06,.73,.17,1.04c.12,.31,.29,.55,.53,.73,.23,.18,.53,.27,.88,.27Z"/><path class="f" d="M416.3,36.08c-.53,0-.99-.12-1.39-.35-.39-.24-.7-.56-.92-.99-.22-.42-.33-.91-.33-1.48s.11-1.1,.32-1.53,.52-.77,.91-1c.39-.24,.84-.35,1.37-.35s1.01,.12,1.39,.38,.67,.61,.86,1.07c.19,.46,.27,1.02,.25,1.66h-.9v-.32c0-.66-.14-1.16-.4-1.49-.26-.33-.65-.49-1.16-.49-.55,0-.97,.18-1.25,.53-.29,.35-.43,.86-.43,1.52s.14,1.13,.43,1.48c.29,.35,.69,.52,1.22,.52,.36,0,.67-.08,.93-.25,.26-.16,.47-.4,.62-.7l.86,.29c-.21,.48-.53,.85-.95,1.11-.42,.26-.89,.39-1.42,.39Zm-2-2.6v-.71h3.99v.71h-3.99Z"/><path class="f" d="M421.9,36.07c-.64,0-1.17-.14-1.58-.42-.41-.28-.66-.68-.76-1.18l.91-.15c.07,.29,.24,.53,.51,.7,.26,.17,.59,.26,.98,.26s.66-.08,.87-.23,.32-.36,.32-.62c0-.15-.04-.28-.11-.37-.07-.09-.21-.18-.43-.27-.22-.08-.55-.18-.99-.3-.48-.13-.85-.26-1.12-.39s-.47-.29-.58-.48c-.12-.18-.17-.4-.17-.65,0-.32,.09-.59,.26-.83,.17-.24,.42-.42,.73-.55,.31-.13,.67-.19,1.09-.19s.78,.06,1.1,.19c.32,.13,.58,.31,.78,.55s.32,.52,.35,.83l-.91,.17c-.04-.29-.18-.52-.42-.69-.24-.17-.54-.25-.91-.26-.35-.01-.63,.05-.85,.18-.22,.14-.33,.32-.33,.56,0,.13,.04,.24,.12,.33,.08,.09,.23,.18,.46,.26,.22,.08,.54,.18,.97,.29,.48,.12,.85,.25,1.13,.39,.27,.14,.47,.31,.59,.5,.12,.19,.18,.43,.18,.71,0,.52-.19,.93-.58,1.23-.38,.3-.91,.45-1.58,.45Z"/><path class="f" d="M424.57,31.26v-.74h3.62v.74h-3.62Zm3.62,4.67c-.32,.06-.64,.09-.95,.08s-.59-.07-.83-.19c-.24-.12-.43-.29-.55-.54-.11-.21-.16-.43-.17-.65,0-.22-.01-.47-.01-.74v-4.86h.89v4.82c0,.22,0,.41,0,.57,0,.16,.04,.29,.1,.4,.12,.21,.31,.34,.57,.38,.26,.04,.58,.03,.95-.03v.76Z"/><path class="f" d="M429.33,30.98l.05-.42c.14,0,.25-.02,.32-.08,.07-.06,.12-.15,.13-.26,.02-.11,.02-.23,0-.37h-.51v-1.13h.98v1.28c0,.35-.09,.61-.26,.79s-.41,.24-.72,.18Z"/><path class="f" d="M433.71,35.93v-5.4h.79v1.31l-.13-.17c.06-.17,.15-.32,.25-.46,.1-.14,.22-.26,.34-.35,.14-.11,.3-.2,.47-.26,.18-.06,.36-.1,.54-.11,.18-.01,.36,0,.52,.04v.83c-.19-.05-.39-.06-.62-.04-.22,.02-.43,.11-.62,.25-.17,.12-.31,.27-.4,.45s-.16,.37-.2,.57c-.04,.21-.06,.42-.06,.63v2.71h-.89Z"/><path class="f" d="M439.49,36.07c-.35,0-.64-.05-.89-.17-.25-.11-.45-.26-.62-.44-.16-.18-.29-.39-.38-.61-.09-.22-.16-.45-.2-.68s-.06-.45-.06-.66v-2.99h.9v2.71c0,.25,.02,.5,.07,.74,.05,.24,.12,.45,.24,.64,.11,.19,.26,.34,.45,.45,.19,.11,.42,.17,.71,.17,.22,0,.43-.04,.61-.12,.18-.08,.34-.19,.47-.34,.13-.15,.23-.34,.3-.58,.07-.23,.11-.5,.11-.81l.58,.18c0,.52-.09,.97-.28,1.34-.19,.38-.45,.67-.8,.87-.34,.2-.74,.3-1.21,.3Zm1.8-.14v-1.45h-.1v-3.96h.89v5.4h-.79Z"/><path class="f" d="M443.59,35.93v-7.35h.89v7.35h-.89Z"/><path class="f" d="M448.32,36.08c-.53,0-.99-.12-1.39-.35-.39-.24-.7-.56-.92-.99-.22-.42-.33-.91-.33-1.48s.11-1.1,.32-1.53,.52-.77,.91-1c.39-.24,.84-.35,1.37-.35s1.01,.12,1.39,.38,.67,.61,.86,1.07c.19,.46,.27,1.02,.25,1.66h-.9v-.32c0-.66-.14-1.16-.4-1.49-.26-.33-.65-.49-1.16-.49-.55,0-.97,.18-1.25,.53-.29,.35-.43,.86-.43,1.52s.14,1.13,.43,1.48c.29,.35,.69,.52,1.22,.52,.36,0,.67-.08,.93-.25,.26-.16,.47-.4,.62-.7l.86,.29c-.21,.48-.53,.85-.95,1.11-.42,.26-.89,.39-1.42,.39Zm-2-2.6v-.71h3.99v.71h-3.99Z"/></g><text class="h" transform="translate(313.67 79.28)"><tspan x="0" y="0">Main chain </tspan><tspan x="0" y="12">a</tspan><tspan class="q" x="5.62" y="12">cc</tspan><tspan x="16.55" y="12">o</tspan><tspan class="b" x="22.55" y="12">r</tspan><tspan x="26.19" y="12">di</tspan><tspan class="s" x="34.68" y="12">n</tspan><tspan x="40.68" y="12">ding </tspan><tspan class="j" x="0" y="24">t</tspan><tspan x="3.89" y="24">o GHOS</tspan><tspan class="e" x="39.62" y="24">T</tspan></text><text class="h" transform="translate(334.4 228.1)"><tspan x="0" y="0">Attac</tspan><tspan class="r" x="25.33" y="0">k</tspan><tspan x="30.33" y="0">e</tspan><tspan class="c" x="36.23" y="0">r</tspan><tspan x="39.77" y="0">s sec</tspan><tspan class="r" x="63.89" y="0">r</tspan><tspan x="67.53" y="0">et chain</tspan></text><g><polyline class="n" points="446.6 235.13 446.6 236.91 444.82 236.91"/><line class="o" x1="441.26" y1="236.91" x2="65.86" y2="236.91"/><polyline class="n" points="64.08 236.91 62.3 236.91 62.3 235.13"/><line class="l" x1="62.3" y1="231.38" x2="62.3" y2="180.75"/><polyline class="n" points="62.3 178.88 62.3 177.09 64.08 177.09"/><line class="o" x1="67.64" y1="177.09" x2="443.04" y2="177.09"/><polyline class="n" points="444.82 177.09 446.6 177.09 446.6 178.88"/><line class="l" x1="446.6" y1="182.63" x2="446.6" y2="233.26"/></g><g><text class="g" transform="translate(210.7 204.5)"><tspan x="0" y="0">3A</tspan></text><rect class="m" x="205.7" y="183.97" width="29.87" height="29.87" rx="4.63" ry="4.63"/></g><g><text class="g" transform="translate(211.01 160.57)"><tspan x="0" y="0">3B</tspan></text><rect class="m" x="205.7" y="140.04" width="29.87" height="29.87" rx="4.63" ry="4.63"/></g><g><text class="g" transform="translate(210.17 126.95)"><tspan x="0" y="0">3C</tspan></text><rect class="m" x="205.7" y="106.42" width="29.87" height="29.87" rx="4.63" ry="4.63"/></g><g><text class="g" transform="translate(210.46 93.33)"><tspan x="0" y="0">3D</tspan></text><rect class="m" x="205.7" y="72.79" width="29.87" height="29.87" rx="4.63" ry="4.63"/></g><g><text class="g" transform="translate(211.37 59.7)"><tspan x="0" y="0">3E</tspan></text><rect class="m" x="205.7" y="39.17" width="29.87" height="29.87" rx="4.63" ry="4.63"/></g><g><text class="g" transform="translate(211.85 26.08)"><tspan x="0" y="0">3F</tspan></text><rect class="m" x="205.7" y="5.54" width="29.87" height="29.87" rx="4.63" ry="4.63"/></g><g><text class="g" transform="translate(143.12 204.5)"><tspan class="d" x="0" y="0">2</tspan><tspan x="9" y="0">A</tspan></text><rect class="m" x="138.08" y="183.97" width="29.87" height="29.87" rx="4.63" ry="4.63"/></g><g><text class="g" transform="translate(143.27 160.57)"><tspan x="0" y="0">2B</tspan></text><rect class="m" x="138.08" y="140.04" width="29.87" height="29.87" rx="4.63" ry="4.63"/></g><g><text class="g" transform="translate(142.43 93.33)"><tspan x="0" y="0">2C</tspan></text><rect class="m" x="138.08" y="72.79" width="29.87" height="29.87" rx="4.63" ry="4.63"/></g><g><text class="g" transform="translate(142.73 26.08)"><tspan x="0" y="0">2D</tspan></text><rect class="m" x="138.08" y="5.54" width="29.87" height="29.87" rx="4.63" ry="4.63"/></g><g><text class="g" transform="translate(76.57 204.5)"><tspan x="0" y="0">1A</tspan></text><rect class="m" x="70.45" y="183.97" width="29.87" height="29.87" rx="4.63" ry="4.63"/></g><g><text class="g" transform="translate(76.88 93.33)"><tspan x="0" y="0">1B</tspan></text><rect class="m" x="70.45" y="72.79" width="29.87" height="29.87" rx="4.63" ry="4.63"/></g><g><text class="g" transform="translate(12.46 126.95)"><tspan x="0" y="0">0</tspan></text><rect class="m" x="2.82" y="106.42" width="29.87" height="29.87" rx="4.63" ry="4.63"/></g><g><text class="g" transform="translate(346.23 26.08)"><tspan x="0" y="0">5B</tspan></text><rect class="m" x="340.96" y="5.54" width="29.87" height="29.87" rx="4.63" ry="4.63"/></g><g><text class="g" transform="translate(413.27 204.5)"><tspan x="0" y="0">6A</tspan></text><rect class="m" x="408.58" y="183.97" width="29.87" height="29.87" rx="4.63" ry="4.63"/></g><g><text class="g" transform="translate(345.92 204.5)"><tspan x="0" y="0">5A</tspan></text><rect class="m" x="340.96" y="183.97" width="29.87" height="29.87" rx="4.63" ry="4.63"/></g><g><text class="g" transform="translate(278.21 204.5)"><tspan class="k" x="0" y="0">4</tspan><tspan x="9.32" y="0">A</tspan></text><rect class="m" x="273.33" y="183.97" width="29.87" height="29.87" rx="4.63" ry="4.63"/></g><g><text class="g" transform="translate(277.58 26.08)"><tspan x="0" y="0">4C</tspan></text><rect class="m" x="273.33" y="5.54" width="29.87" height="29.87" rx="4.63" ry="4.63"/></g><g><text class="g" transform="translate(278.42 93.33)"><tspan x="0" y="0">4B</tspan></text><rect class="m" x="273.33" y="72.79" width="29.87" height="29.87" rx="4.63" ry="4.63"/></g></svg>